<svg width="98" height="25" viewBox="0 0 98 25" fill="none" xmlns="http://www.w3.org/2000/svg">
<path fill-rule="evenodd" clip-rule="evenodd" d="M20.0502 4.20265L20.1734 4.97263C20.2658 5.68101 20.312 6.38939 20.2966 7.11317C20.2966 8.69932 20.1118 10.2701 19.7422 11.81C19.2494 13.889 18.3871 15.8755 17.2013 17.6619C15.8307 19.6946 13.8442 21.6811 10.9645 23.3135L10.6103 23.5137L10.2561 23.3135C7.37638 21.7119 5.38984 19.71 4.01928 17.6619C2.81812 15.8755 1.97114 13.9044 1.47836 11.81C1.10877 10.2701 0.923973 8.69932 0.923973 7.11317C0.923973 6.40479 0.954772 5.68101 1.04717 4.97263L1.15497 4.20265C1.17037 4.14105 1.17037 4.07945 1.15497 4.01786C1.13957 3.95626 1.12417 3.89466 1.07797 3.84846C1.04717 3.80226 1.00097 3.75607 0.954772 3.72527C0.908573 3.69447 0.846975 3.67907 0.800776 3.66367C0.739178 3.64827 0.67758 3.64827 0.615982 3.66367C0.554384 3.67907 0.492786 3.70987 0.446587 3.74066C0.400388 3.77146 0.354189 3.81766 0.32339 3.86386C0.292591 3.92546 0.277191 3.98706 0.261792 4.04866L0.138596 4.81863C0.0461989 5.57321 0 6.34319 0 7.11317C0 8.77632 0.200195 10.4241 0.585183 12.041C0.846976 13.1344 1.20116 14.2124 1.64775 15.2441C2.09434 16.2759 2.63332 17.2615 3.2647 18.2008C4.71226 20.3568 6.8066 22.4665 9.82491 24.1297L10.3947 24.4531C10.4717 24.4839 10.5487 24.4993 10.6257 24.4993C10.7027 24.4993 10.7797 24.4839 10.8567 24.4531L11.4265 24.1297C14.4294 22.4511 16.5391 20.3414 17.9867 18.2008C19.2494 16.3221 20.158 14.2278 20.6662 12.041C21.0512 10.4241 21.236 8.77632 21.236 7.11317C21.236 6.34319 21.1898 5.57321 21.0974 4.80323L20.9742 4.03326C20.9588 3.97166 20.9434 3.91006 20.9126 3.84846C20.8818 3.80226 20.8356 3.75607 20.7894 3.72527C20.7432 3.69447 20.6816 3.66367 20.62 3.64827C20.5584 3.63287 20.4968 3.63287 20.4352 3.64827C20.3736 3.66367 20.312 3.67907 20.2504 3.70987C20.2042 3.74066 20.158 3.78686 20.1272 3.83306C20.0964 3.87926 20.0656 3.94086 20.0502 4.00246V4.20265Z" fill="white"/>
<path fill-rule="evenodd" clip-rule="evenodd" d="M3.7421 3.68001L10.6411 1.50867L17.6787 3.72621C17.7403 3.74161 17.8019 3.7416 17.8635 3.7416C17.9251 3.7416 17.9867 3.7262 18.0483 3.6954C18.1099 3.66461 18.1561 3.63381 18.2023 3.57221C18.2485 3.52601 18.2793 3.46441 18.2793 3.40281C18.2947 3.34122 18.2947 3.27962 18.2947 3.21802C18.2947 3.15642 18.2793 3.09482 18.2485 3.03323C18.2177 2.97163 18.1869 2.92543 18.1407 2.87923C18.0945 2.83303 18.0329 2.80223 17.9713 2.80223L10.7797 0.523099C10.6873 0.4923 10.5949 0.4923 10.5025 0.523099L3.48031 2.74063C3.41871 2.75603 3.37252 2.78683 3.31092 2.81763C3.26472 2.86383 3.21852 2.91003 3.20312 2.97163C3.17232 3.03322 3.15692 3.09482 3.15692 3.15642C3.15692 3.21802 3.15692 3.27962 3.17232 3.34122C3.18772 3.40282 3.21852 3.46441 3.24932 3.51061C3.28012 3.55681 3.34172 3.60301 3.40331 3.63381C3.44951 3.66461 3.51111 3.68001 3.58811 3.68001C3.61891 3.69541 3.68051 3.69541 3.7421 3.68001Z" fill="white"/>
<path fill-rule="evenodd" clip-rule="evenodd" d="M0.33885 4.34327L10.21 24.2395C10.2408 24.3165 10.3024 24.3781 10.364 24.4243C10.518 24.5167 10.7027 24.5167 10.8567 24.4243C10.9337 24.3781 10.9953 24.3165 11.0415 24.2395L17.0628 12.6128L17.0782 12.5974L20.928 4.32787C20.9588 4.26627 20.9742 4.20467 20.9742 4.14308C20.9742 4.08148 20.9742 4.01988 20.9434 3.95828C20.928 3.89668 20.8972 3.83508 20.8511 3.78889C20.8203 3.74269 20.7587 3.69649 20.7125 3.66569C20.6663 3.63489 20.6047 3.61949 20.5277 3.61949C20.4661 3.61949 20.4045 3.61949 20.3429 3.63489C20.2813 3.65029 20.2197 3.68109 20.1735 3.72729C20.1273 3.77349 20.0811 3.81969 20.0657 3.88128L16.2158 12.1508L10.6103 22.9767L1.15503 3.88128C1.12423 3.83509 1.07803 3.77349 1.04723 3.72729C1.00103 3.68109 0.939433 3.65029 0.877834 3.63489C0.816236 3.60409 0.754638 3.60409 0.69304 3.61949C0.631442 3.61949 0.569844 3.63489 0.508246 3.66569C0.462047 3.69649 0.400449 3.74269 0.36965 3.78889C0.338851 3.83508 0.308052 3.89668 0.292652 3.95828C0.277253 4.01988 0.261853 4.08148 0.277253 4.14308C0.292652 4.22007 0.308051 4.28167 0.33885 4.34327Z" fill="white"/>
<path fill-rule="evenodd" clip-rule="evenodd" d="M5.06653 13.2099H16.0618C16.1234 13.2099 16.185 13.1945 16.2466 13.1791C16.3082 13.1637 16.3544 13.1175 16.3852 13.0713C16.4314 13.0251 16.4622 12.9789 16.4776 12.9173C16.5238 12.7941 16.5238 12.6709 16.4776 12.5477C16.4622 12.4861 16.416 12.4399 16.3852 12.3937C16.339 12.3475 16.2928 12.3167 16.2466 12.2859C16.185 12.2705 16.1234 12.2551 16.0618 12.2551H5.06653C5.00493 12.2551 4.94333 12.2705 4.88173 12.2859C4.82013 12.3013 4.77394 12.3475 4.74314 12.3937C4.69694 12.4399 4.66614 12.4861 4.65074 12.5477C4.60454 12.6709 4.60454 12.7941 4.65074 12.9173C4.66614 12.9789 4.69694 13.0251 4.74314 13.0713C4.78933 13.1175 4.83553 13.1483 4.88173 13.1791C4.94333 13.1945 5.00493 13.1945 5.06653 13.2099ZM35.7116 9.06738H28.5662C28.5046 9.06738 28.443 9.08278 28.3814 9.09818C28.3198 9.11358 28.2736 9.15978 28.2428 9.20598C28.1966 9.25218 28.1658 9.29837 28.1504 9.35997C28.1351 9.42157 28.1197 9.48317 28.1197 9.54476V15.4736C28.1197 15.5352 28.1351 15.5968 28.1504 15.6584C28.1658 15.72 28.1966 15.7662 28.2428 15.8124C28.289 15.8586 28.3352 15.8894 28.3814 15.9202C28.443 15.9356 28.5046 15.951 28.5662 15.951H35.7116V16.9519H28.5662C28.4738 16.9519 28.3814 16.9365 28.2891 16.9211C28.1967 16.9057 28.1043 16.8749 28.0119 16.8441C27.9195 16.8133 27.8425 16.7672 27.7655 16.721C27.6885 16.6594 27.6269 16.5978 27.5499 16.5362C27.4113 16.3976 27.3189 16.2436 27.2419 16.0742C27.2111 15.9818 27.1803 15.8894 27.1649 15.797C27.1495 15.7046 27.1341 15.6122 27.1341 15.5198V9.56016C27.1341 9.46777 27.1495 9.37537 27.1649 9.28297C27.1803 9.19058 27.2111 9.09818 27.2419 9.00578C27.2727 8.91338 27.3189 8.82099 27.3651 8.74399C27.4113 8.66699 27.4729 8.58999 27.5499 8.52839C27.6115 8.46679 27.6885 8.4052 27.7655 8.3436C27.8425 8.2974 27.9195 8.2512 28.0119 8.2204C28.1043 8.1896 28.1967 8.1588 28.2891 8.1434C28.3814 8.128 28.4738 8.11261 28.5662 8.11261H35.7116V9.06738ZM49.1246 8.06641V9.06738H42.241V12.0087H47.7695V13.0251H42.241V15.9664H49.1246V16.9673H41.2863V8.06641H49.1246Z" fill="white"/>
<path d="M63.3076 9.5797V12.1822C63.3076 12.2746 63.2921 12.367 63.2768 12.4594C63.2614 12.5518 63.2306 12.6442 63.1998 12.7366C63.169 12.829 63.1228 12.9214 63.0766 12.9984C63.015 13.0754 62.9688 13.1524 62.8918 13.214C62.8302 13.2756 62.7532 13.3372 62.6762 13.3988C62.5992 13.445 62.5222 13.4912 62.4298 13.522C62.3374 13.5528 62.245 13.5836 62.1526 13.6144C62.0602 13.6298 61.9678 13.6452 61.8754 13.6452H60.5664L63.2613 16.9561H61.9678L59.2883 13.6452H56.1468C55.9928 13.6452 55.8388 13.6298 55.6848 13.599V16.9561H54.7146V8.08594H61.8908C61.9832 8.08594 62.0756 8.10134 62.168 8.11674C62.2604 8.13214 62.3528 8.16294 62.4452 8.19374C62.5376 8.22454 62.6146 8.27073 62.6916 8.33233C62.8456 8.44013 62.9688 8.57872 63.0766 8.73272C63.1228 8.80972 63.169 8.90211 63.1998 8.99451C63.2306 9.08691 63.2614 9.17931 63.2768 9.2717C63.2921 9.3795 63.3076 9.4873 63.3076 9.5797ZM56.1314 12.6596H61.8754C61.937 12.6596 61.9986 12.6442 62.0602 12.6288C62.1218 12.6134 62.168 12.5826 62.1988 12.521C62.245 12.4748 62.2758 12.4286 62.2912 12.367C62.3066 12.3054 62.322 12.2438 62.322 12.1822V9.5797C62.322 9.4565 62.2758 9.3333 62.1988 9.2409C62.1218 9.14851 61.9986 9.08691 61.8754 9.08691H56.1314C56.0698 9.08691 56.0082 9.10231 55.9466 9.11771C55.885 9.13311 55.8388 9.1793 55.808 9.2255C55.7618 9.2717 55.731 9.3179 55.7156 9.3795C55.7002 9.4411 55.6848 9.5027 55.6848 9.5643V12.1668C55.6848 12.29 55.731 12.4132 55.8388 12.5056C55.9004 12.598 56.0236 12.6596 56.1314 12.6596Z" fill="white"/>
<path fill-rule="evenodd" clip-rule="evenodd" d="M68.451 8.06641H77.044V9.06738H73.2403V16.9519H72.2701V9.06738H68.451V8.06641ZM82.2798 16.9673V8.08181H83.25V16.9673H82.2798ZM96.1702 8.06641H97.4176L93.8295 12.5169L97.433 16.9673H96.1702L92.9671 13.0251H90.1952V16.9673H89.225V8.08181H90.2106V12.0241H92.9825L96.1702 8.06641Z" fill="white"/>
</svg>
