<svg width="116" height="25" viewBox="0 0 116 25" fill="none" xmlns="http://www.w3.org/2000/svg">
<path fill-rule="evenodd" clip-rule="evenodd" d="M12.4016 0.500136C19.0439 0.500136 24.4015 5.85778 24.4015 12.5313C24.4015 19.1109 18.9812 24.5312 12.3076 24.4999C5.85341 24.4372 0.433105 19.1109 0.433105 12.5C0.433105 5.85778 5.75942 0.468805 12.4016 0.500136ZM3.28425 18.7662C3.28425 18.8916 3.34691 18.9542 3.40957 19.0482C3.87954 19.7062 4.41217 20.3328 5.0388 20.8654C5.32078 21.1161 5.60276 21.3667 5.91607 21.5861C6.79335 22.15 7.70195 22.6827 8.70455 23.0273C9.51917 23.3093 10.3651 23.5286 11.2111 23.6226C11.869 23.6853 12.5583 23.7166 13.2163 23.6226C13.5922 23.5599 13.9995 23.5599 14.3755 23.4033C14.4382 23.4346 14.4695 23.3719 14.5008 23.3719C15.2841 23.2466 16.0361 22.996 16.788 22.6827C19.2319 21.6174 21.0804 19.8942 22.271 17.513C23.3362 15.4138 23.6809 13.1893 23.3362 10.8708C23.0229 8.64626 22.083 6.70372 20.5791 5.0745C18.5739 2.78732 16.0047 1.59673 12.9656 1.40874C11.6184 1.31475 10.2711 1.50274 8.98654 1.94137C6.88734 2.63066 5.16412 3.82125 3.75422 5.54447C2.15632 7.51833 1.37304 9.77418 1.27905 12.2807C1.24772 12.9073 1.31038 13.5026 1.40437 14.1292C1.59236 15.5391 2.06233 16.8864 2.78295 18.1083C2.97094 18.2963 3.09626 18.5469 3.28425 18.7662Z" fill="white"/>
<path fill-rule="evenodd" clip-rule="evenodd" d="M14.3754 23.3705C13.9995 23.5585 13.5922 23.5585 13.2162 23.5898C12.5582 23.6838 11.8689 23.6525 11.211 23.5898C10.365 23.4958 9.5191 23.2765 8.70448 22.9945C7.70188 22.6499 6.79328 22.1173 5.916 21.5533C5.60269 21.334 5.32071 21.0833 5.03873 20.8327C4.4121 20.3 3.87947 19.6734 3.4095 19.0155C3.34684 18.9215 3.28418 18.8275 3.28418 18.7335C4.03613 17.0416 4.31811 15.2557 4.47477 13.4385C4.53743 12.5926 4.56876 11.7466 4.72542 10.9007C4.88207 9.92941 5.25805 9.05213 5.94734 8.30018C6.57396 7.64223 7.35724 7.20359 8.20318 6.89028C8.89247 6.6083 9.61309 6.35765 10.3964 6.32632C11.117 6.29498 11.8063 6.38898 12.4956 6.54564C13.5295 6.79629 14.5634 7.1096 15.5347 7.57957C16.318 7.89288 17.1326 8.20619 17.9472 8.45684C18.7931 8.70749 19.6391 8.98947 20.3597 9.5221C21.2683 10.2114 21.519 11.0887 21.1117 12.1539C20.861 12.8119 20.391 13.3132 19.9211 13.8145C19.0751 14.6918 18.1665 15.5064 17.3519 16.415C16.412 17.5116 15.566 18.6395 14.9707 19.9554C14.4694 21.052 14.1875 22.1799 14.3754 23.3705ZM20.4224 13.0625C20.391 13.0625 20.3597 13.0625 20.3284 13.0939C20.297 13.0939 20.2657 13.1252 20.2657 13.1565C20.2657 13.1565 20.2657 13.1565 20.2657 13.1879C20.297 13.1879 20.3284 13.1565 20.3284 13.1252L20.4224 13.0625C20.485 13.0625 20.4537 13.0625 20.4224 13.0625ZM10.835 7.6109C9.64442 7.6109 8.67315 8.58217 8.67315 9.74142C8.67315 10.932 9.64442 11.8719 10.8037 11.9033C11.9943 11.9033 12.9342 10.932 12.9655 9.74142C12.9655 8.55083 12.0256 7.6109 10.835 7.6109ZM12.5896 14.1905C12.7775 14.4724 13.1222 14.7231 13.5295 14.8484C14.3441 15.1304 15.1587 15.1304 15.9733 14.9737C17.4146 14.6918 18.7618 14.1905 19.9837 13.3758C20.0464 13.3132 20.1717 13.3132 20.203 13.1879C20.1404 13.1565 20.1091 13.1879 20.0777 13.2192C19.6704 13.4698 19.2318 13.6578 18.7931 13.8458C17.6652 14.3158 16.4746 14.6291 15.2214 14.6918C14.3128 14.7544 13.4042 14.6918 12.5896 14.1905ZM18.5112 12.3419C18.7618 12.3419 18.9811 12.1226 18.9811 11.8406C18.9811 11.59 18.7618 11.3706 18.4798 11.402C18.2292 11.402 18.0412 11.6213 18.0412 11.8719C18.0412 12.1539 18.2292 12.3419 18.5112 12.3419Z" fill="#A9ACBF"/>
<path fill-rule="evenodd" clip-rule="evenodd" d="M12.4643 6.54483C11.775 6.4195 11.0857 6.29418 10.3651 6.32551C9.5818 6.35684 8.89251 6.60749 8.1719 6.88947C7.32595 7.20278 6.54267 7.64142 5.91605 8.29938C5.22676 9.02 4.85079 9.89727 4.69413 10.8999C4.5688 11.7458 4.53747 12.5918 4.44348 13.4377C4.28682 15.2549 4.00484 17.0721 3.25289 18.7327C3.03357 18.5447 2.90825 18.2627 2.78292 18.0434C2.0623 16.8215 1.59234 15.4742 1.40435 14.0643C1.31036 13.4377 1.24769 12.8424 1.27902 12.2158C1.37302 9.70928 2.1563 7.45343 3.75419 5.47957C5.13277 3.75635 6.88732 2.56576 8.98651 1.87647C10.2711 1.46917 11.6183 1.28118 12.9656 1.34384C15.9734 1.53183 18.5425 2.75375 20.5791 4.97827C22.083 6.63882 22.9916 8.58136 23.3362 10.7745C23.6809 13.0931 23.3362 15.3176 22.271 17.4168C21.0804 19.7979 19.2318 21.5212 16.788 22.5864C16.0674 22.8997 15.3154 23.1504 14.5008 23.2757C14.4381 23.2757 14.4068 23.3697 14.3755 23.307C14.1875 22.1165 14.4695 20.9885 14.9394 19.8919C15.5347 18.576 16.3807 17.4481 17.3206 16.3515C18.1039 15.4429 19.0125 14.597 19.8898 13.751C20.3911 13.2497 20.8297 12.7484 21.0804 12.0905C21.519 11.0252 21.2684 10.1479 20.3284 9.45863C19.6078 8.926 18.7619 8.64402 17.9159 8.39337C17.1013 8.14272 16.2867 7.82941 15.5034 7.5161C15.3467 6.98346 14.9708 6.63882 14.4695 6.45083C13.8115 6.29418 13.1536 6.35684 12.4643 6.54483ZM22.7096 13.2184H22.7723C22.8976 12.7797 22.8976 12.3098 22.8976 11.8398C22.8976 11.3072 22.8349 10.7745 22.7409 10.2419C22.3963 8.51869 21.613 7.0148 20.3911 5.73022C19.6391 4.94694 18.7932 4.28898 17.9472 3.59969C17.1953 2.97307 16.3807 2.5031 15.4407 2.25245C14.5321 2.03313 13.6549 1.9078 12.7149 2.06446C12.6523 2.06446 12.5896 2.06446 12.5896 2.12712C12.5896 2.18979 12.6523 2.18979 12.7149 2.18979C14.0935 2.44043 15.4094 2.87907 16.694 3.38037C17.9472 3.88167 19.0125 4.60229 19.7958 5.73022C20.3284 6.5135 20.8297 7.32811 21.237 8.20538C21.7697 9.39597 22.177 10.6179 22.4276 11.8711C22.5529 12.3724 22.6469 12.7797 22.7096 13.2184Z" fill="white"/>
<path fill-rule="evenodd" clip-rule="evenodd" d="M10.835 7.61328C12.0255 7.61328 12.9655 8.58455 12.9655 9.7438C12.9655 10.9344 11.9942 11.8743 10.8036 11.9057C9.61303 11.9057 8.6731 10.9344 8.6731 9.7438C8.6731 8.55322 9.64436 7.61328 10.835 7.61328ZM12.3389 9.77514C12.3389 8.92919 11.6809 8.27124 10.835 8.27124C9.98901 8.27124 9.33105 8.92919 9.33105 9.77514C9.33105 10.5897 9.98901 11.279 10.8036 11.279H10.835C11.6496 11.279 12.3075 10.6211 12.3389 9.77514Z" fill="#FCFDFB"/>
<path fill-rule="evenodd" clip-rule="evenodd" d="M12.5896 14.193C13.4042 14.6943 14.3128 14.7569 15.2214 14.7256C16.4746 14.6629 17.6652 14.3809 18.7931 13.8796C19.2318 13.6917 19.6704 13.5037 20.0777 13.253C20.1091 13.2217 20.1404 13.1904 20.203 13.2217C20.1717 13.3157 20.0777 13.347 19.9837 13.4097C18.7618 14.2243 17.4146 14.7256 15.9733 15.0076C15.1587 15.1642 14.3128 15.1642 13.5295 14.8822C13.1222 14.7256 12.7462 14.4749 12.5896 14.193ZM12.4642 6.54813C13.1222 6.36014 13.8115 6.29748 14.4694 6.54813C14.9707 6.73612 15.3467 7.08076 15.5034 7.61339C14.5634 7.1121 13.5295 6.79878 12.4642 6.54813Z" fill="#7E8295"/>
<path fill-rule="evenodd" clip-rule="evenodd" d="M18.5112 12.3423C18.2606 12.3423 18.0413 12.123 18.0413 11.8723C18.0413 11.6217 18.2292 11.4023 18.4799 11.4023C18.7305 11.4023 18.9499 11.5903 18.9812 11.841C18.9499 12.123 18.7619 12.3423 18.5112 12.3423Z" fill="#FCFDFB"/>
<path fill-rule="evenodd" clip-rule="evenodd" d="M20.3283 13.1252C20.3283 13.1565 20.297 13.1878 20.2657 13.1878C20.2657 13.1252 20.297 13.0938 20.3283 13.1252ZM20.4223 13.0625L20.3283 13.1252L20.297 13.0938C20.3597 13.0625 20.391 13.0625 20.4223 13.0625Z" fill="#A9ACBF"/>
<path fill-rule="evenodd" clip-rule="evenodd" d="M22.7096 13.2186C22.6156 12.78 22.5216 12.3727 22.459 11.934C22.2083 10.6495 21.7697 9.42755 21.2684 8.26829C20.8924 7.39102 20.3911 6.5764 19.8272 5.79312C19.0439 4.6652 18.0099 3.94458 16.7254 3.44328C15.4095 2.94198 14.1249 2.47201 12.7463 2.25269C12.6836 2.25269 12.621 2.25269 12.621 2.19003C12.621 2.12737 12.6836 2.12737 12.7463 2.12737C13.6549 1.97071 14.5635 2.06471 15.4721 2.31536C16.4121 2.56601 17.2267 3.0673 17.9786 3.6626C18.8246 4.35189 19.6705 5.00984 20.4225 5.79312C21.6444 7.0777 22.4277 8.5816 22.7723 10.3048C22.8663 10.8375 22.929 11.3701 22.929 11.9027C22.929 12.3414 22.929 12.8113 22.8036 13.2813L22.7096 13.2186Z" fill="#FFFEFC"/>
<path fill-rule="evenodd" clip-rule="evenodd" d="M12.3389 9.77351C12.3389 10.5881 11.6809 11.2774 10.8663 11.2774H10.835C10.0203 11.2774 9.33105 10.6195 9.33105 9.77351V9.74218C9.33105 8.89624 10.0203 8.23828 10.835 8.23828C11.6496 8.23828 12.3389 8.92757 12.3389 9.77351Z" fill="#7E8295"/>
<path fill-rule="evenodd" clip-rule="evenodd" d="M76.2678 16.3299C76.2234 16.3743 76.1791 16.3743 76.1348 16.4186C74.7604 17.9703 73.0314 18.2363 71.1693 17.7486C68.8639 17.1723 67.6226 15.5319 67.1349 13.2709C66.8246 11.8078 66.9132 10.3448 67.4896 8.97044C68.5093 6.53205 70.8147 5.20202 73.4304 5.55669C74.6274 5.73403 75.7358 6.13304 76.5781 7.01973C77.1988 7.68474 77.5535 8.48276 77.6865 9.36945C77.7308 9.54678 77.6421 9.59112 77.5091 9.59112C76.9771 9.59112 76.4008 9.59112 75.8688 9.59112C75.7358 9.59112 75.6914 9.54678 75.6471 9.41378C75.3811 8.21675 74.5831 7.55174 73.4304 7.33006C72.1003 7.06406 70.9477 7.33007 70.061 8.39409C69.263 9.36944 69.0413 10.5665 69.0413 11.8078C69.0413 12.7389 69.2186 13.6255 69.6176 14.4236C70.5487 16.1969 72.854 16.8176 74.5831 15.7979C75.5584 15.2216 75.8688 14.2906 75.9574 13.2265C75.9574 13.0049 75.8244 13.0492 75.6914 13.0492C74.8047 13.0492 73.9624 13.0492 73.0757 13.0492C72.8097 13.0492 72.7654 12.9605 72.7654 12.7389C72.7654 12.3842 72.7654 12.0738 72.7654 11.7192C72.7654 11.4975 72.854 11.4532 73.0314 11.4532C74.5387 11.4532 76.0904 11.4532 77.5978 11.4532C77.7751 11.4532 77.8638 11.4975 77.8638 11.6748C77.8638 13.6255 77.8638 15.5319 77.8638 17.4826C77.8638 17.66 77.8195 17.7043 77.6421 17.7043C77.2875 17.7043 76.8441 17.793 76.5781 17.66C76.3121 17.4826 76.4008 17.0393 76.3121 16.6846C76.3121 16.5516 76.2678 16.4186 76.2678 16.3299ZM41.155 9.59112C40.889 9.59112 40.623 9.59112 40.3126 9.59112C40.1353 9.59112 40.091 9.54678 40.0466 9.36945C39.692 8.12809 38.894 7.3744 37.6083 7.2414C36.1896 7.10839 34.9925 7.55174 34.2832 8.83743C33.2192 10.7881 33.2635 12.7832 34.3275 14.6896C35.0369 15.9753 36.5886 16.5516 38.0073 16.1526C39.2486 15.7979 39.825 14.8669 40.091 13.6699C40.1796 13.1822 40.1796 13.1822 40.6673 13.1822C41.1107 13.1822 41.554 13.1822 41.9974 13.1822C42.1747 13.1822 42.219 13.2265 42.1747 13.4039C41.953 15.7536 40.4457 17.5713 38.1403 17.926C34.8152 18.458 32.0665 16.4186 31.5345 13.0935C31.3128 11.6305 31.4458 10.2118 32.0221 8.83743C33.0418 6.53205 35.3029 5.29069 37.8299 5.60103C39.027 5.77837 40.1353 6.17737 41.022 7.06406C41.6427 7.72907 41.9974 8.52709 42.1304 9.41378C42.1747 9.59112 42.1304 9.63545 41.953 9.63545C41.7313 9.54678 41.421 9.59112 41.155 9.59112ZM106.415 17.66C105.661 17.66 104.996 17.66 104.287 17.66C104.11 17.66 104.021 17.5713 103.977 17.4383C103.223 16.1969 102.425 14.9999 101.671 13.7585C101.538 13.5369 101.494 13.5369 101.272 13.7142C100.519 14.2462 100.208 14.9556 100.341 15.8866C100.43 16.3743 100.341 16.9063 100.341 17.4383C100.341 17.66 100.253 17.7043 100.075 17.7043C99.632 17.7043 99.1886 17.7043 98.7453 17.7043C98.5236 17.7043 98.4793 17.6156 98.4793 17.394C98.4793 15.5762 98.4793 13.7585 98.4793 11.8965C98.4793 9.99012 98.4793 8.08375 98.4793 6.13304C98.4793 5.8227 98.5679 5.73403 98.8783 5.77836C99.2773 5.8227 99.6763 5.8227 100.075 5.77836C100.341 5.77836 100.386 5.86703 100.386 6.08871C100.386 8.08375 100.386 10.0788 100.386 12.0738V12.4285L100.474 12.4728C100.607 12.2955 100.785 12.1182 100.918 11.9408C101.804 11.0098 102.691 10.1231 103.622 9.19211C103.711 9.10344 103.799 9.01477 103.932 9.01477C104.642 9.01477 105.351 9.01477 106.06 9.01477C106.06 9.14777 105.927 9.19211 105.883 9.28078C104.952 10.1675 104.065 11.0541 103.09 11.9408C102.868 12.1182 102.868 12.2512 103.046 12.5172C104.11 14.1132 105.174 15.7093 106.238 17.3053C106.238 17.4383 106.326 17.527 106.415 17.66ZM84.514 13.8472C83.5386 13.8472 82.6076 13.8472 81.6322 13.8472C81.4106 13.8472 81.3662 13.8915 81.3662 14.1132C81.4549 15.8423 83.0509 16.9063 84.647 16.2413C85.0903 16.0639 85.445 15.7093 85.6223 15.2216C85.711 14.9999 85.844 14.9556 86.0213 14.9556C86.4203 14.9556 86.8637 14.9556 87.2627 14.9556C87.4844 14.9556 87.5287 14.9999 87.44 15.2216C86.9523 16.7733 85.8883 17.6156 84.2923 17.8373C82.8736 18.059 81.5436 17.7486 80.5239 16.6846C79.8145 15.9309 79.5042 14.9556 79.4155 13.9359C79.3268 12.6945 79.5042 11.4975 80.3022 10.4335C81.3219 9.10344 82.6963 8.61576 84.2923 8.88177C85.977 9.19211 86.9967 10.2561 87.4844 11.8522C87.6617 12.4285 87.706 13.0049 87.6617 13.6255C87.6617 13.8472 87.573 13.8915 87.3957 13.8915C86.4647 13.8472 85.4893 13.8472 84.514 13.8472ZM83.5829 12.6058C84.248 12.6058 84.913 12.6058 85.5336 12.6058C85.7553 12.6058 85.7997 12.5615 85.7553 12.3398C85.578 11.1872 84.7356 10.3448 83.6273 10.3005C82.4746 10.2561 81.5436 11.0541 81.3662 12.2512C81.3219 12.4728 81.3662 12.5615 81.6322 12.5615C82.2972 12.6058 82.9179 12.6058 83.5829 12.6058ZM43.4604 13.3595C43.4604 12.8275 43.5491 12.2512 43.6821 11.7192C44.2584 9.85712 45.8988 8.70443 47.9381 8.83743C49.4898 8.9261 50.7755 9.45811 51.5292 10.8325C52.4159 12.5172 52.4159 14.2906 51.4849 15.9309C50.6425 17.4826 49.1795 17.9703 47.4948 17.8816C44.9677 17.7486 43.4604 16.0196 43.4604 13.3595ZM45.3668 13.3595C45.3668 14.1132 45.4998 14.7782 45.9431 15.3989C46.6525 16.4186 48.0268 16.7289 49.0465 16.0196C49.2682 15.8423 49.4899 15.6649 49.6672 15.4432C50.4209 14.3349 50.4652 12.4728 49.6672 11.3202C48.7362 9.99012 46.7855 9.99013 45.8988 11.3645C45.4998 11.9408 45.3668 12.6502 45.3668 13.3595ZM106.903 13.4039C106.903 12.1625 107.169 11.0541 108.011 10.1231C108.853 9.14777 110.006 8.7931 111.248 8.7931C112.489 8.7931 113.642 9.14777 114.528 10.1231C115.459 11.1872 115.681 12.4728 115.592 13.8472C115.548 14.3349 115.459 14.8226 115.282 15.2659C114.617 16.9949 113.021 17.9703 110.982 17.8373C108.587 17.7043 107.08 16.1526 106.947 13.7585C106.947 13.6699 106.903 13.4925 106.903 13.4039ZM113.686 13.4925C113.686 12.6058 113.464 11.8522 113.154 11.3202C112.489 10.2561 111.07 9.99012 110.051 10.6551C109.785 10.8325 109.563 11.0541 109.386 11.3202C108.632 12.4285 108.676 14.2906 109.386 15.3546C110.095 16.3743 111.469 16.6846 112.489 15.9753C112.755 15.7979 112.932 15.6206 113.11 15.3546C113.553 14.7782 113.686 14.0689 113.686 13.4925ZM59.5094 10.2561C60.0414 9.59112 60.6621 9.10344 61.5045 8.88177C62.2581 8.70443 63.0118 8.74876 63.7212 9.0591C64.7852 9.50245 65.2285 10.4335 65.2729 11.5418C65.3172 13.4925 65.2729 15.4432 65.2729 17.394C65.2729 17.6156 65.2285 17.66 65.0069 17.66C64.5635 17.66 64.1202 17.66 63.6768 17.66C63.4552 17.66 63.3665 17.6156 63.3665 17.3496C63.3665 15.7093 63.3665 14.0245 63.3665 12.3842C63.3665 12.0295 63.3222 11.6748 63.2335 11.3645C62.9675 10.4778 62.1251 10.1231 61.1054 10.3891C60.2188 10.6551 59.6424 11.4532 59.6424 12.4728C59.6424 14.0689 59.6424 15.7093 59.6424 17.3053C59.6424 17.5713 59.5981 17.7043 59.2877 17.66C58.8887 17.6156 58.4454 17.6156 58.0464 17.66C57.8247 17.66 57.736 17.6156 57.736 17.3496C57.736 16.1083 57.736 14.9112 57.736 13.6699C57.736 12.2512 57.736 10.8325 57.736 9.41378C57.736 9.10344 57.8247 9.01477 58.135 9.0591C58.534 9.10344 58.8887 9.0591 59.2877 9.0591C59.5094 9.0591 59.5981 9.10344 59.5537 9.32511C59.5094 9.63545 59.5094 9.94579 59.5094 10.2561ZM95.8635 11.9408C95.8192 11.9408 95.7749 11.9408 95.7305 11.9408C95.2429 11.9852 94.9325 11.9408 94.7108 11.3645C94.1788 10.0345 92.0508 9.99012 91.1641 11.2315C90.8538 11.6305 90.7208 12.1182 90.6321 12.6502C90.5434 13.4925 90.5434 14.3349 90.8981 15.1329C91.3414 16.1083 92.1395 16.5516 93.1591 16.4186C94.0015 16.2856 94.5779 15.7536 94.7995 14.8226C94.8439 14.5566 94.9769 14.4679 95.2429 14.5122C95.6862 14.5122 96.0852 14.5122 96.5286 14.5122C96.7502 14.5122 96.7946 14.6009 96.7502 14.7782C96.3069 16.9063 94.7995 18.1033 92.5828 17.9703C90.3661 17.8373 88.9031 16.3743 88.7257 14.1132C88.637 13.1379 88.7257 12.1625 89.1247 11.2315C89.7897 9.67978 91.2971 8.7931 93.0705 8.88177C94.1345 8.9261 95.1099 9.19211 95.9079 9.94579C96.3956 10.4335 96.6616 11.0541 96.7946 11.7192C96.8389 11.9408 96.7502 12.0295 96.5286 11.9852C96.3512 11.9408 96.1295 11.9408 95.8635 11.9408ZM55.6523 13.4039C55.6523 14.6896 55.6523 15.9753 55.6523 17.261C55.6523 17.6156 55.5637 17.7043 55.2533 17.66C54.8543 17.6156 54.4996 17.6156 54.1006 17.66C53.8346 17.66 53.7459 17.6156 53.7459 17.3053C53.7459 14.9999 53.7459 12.6945 53.7459 10.3891C53.7459 10.0345 53.7459 9.67978 53.7459 9.32511C53.7459 9.10344 53.7903 9.0591 54.012 9.0591C54.4553 9.0591 54.8986 9.0591 55.342 9.0591C55.608 9.0591 55.6967 9.10344 55.6967 9.41378C55.6523 10.7438 55.6523 12.0738 55.6523 13.4039ZM54.7656 5.77836C55.0316 5.8227 55.4306 5.64536 55.608 5.8227C55.7853 6.00004 55.6523 6.39905 55.6523 6.70939C55.6523 6.97539 55.7853 7.33007 55.608 7.5074C55.4306 7.68474 55.076 7.55174 54.81 7.55174C54.4553 7.55174 54.012 7.68474 53.7903 7.5074C53.6129 7.28573 53.7459 6.84239 53.7459 6.53205C53.7459 5.77837 53.7459 5.77836 54.4996 5.77836H54.7656Z" fill="white"/>
</svg>
