<svg width="222" height="38" viewBox="0 0 222 38" fill="none" xmlns="http://www.w3.org/2000/svg">
<path fill-rule="evenodd" clip-rule="evenodd" d="M32.8229 22.6944C32.1632 23.0903 31.3715 23.2222 30.8438 22.8264C30.0521 22.4306 29.6563 21.375 29.6563 20.0556V15.8333C29.6563 13.8542 28.8646 12.4028 27.5451 12.0069C25.3021 11.3472 23.5868 14.1181 22.9271 15.1736L18.9688 21.6389V13.7222C18.9688 11.875 18.309 10.8194 17.2535 10.5556C16.4618 10.2917 15.4063 10.4236 14.3507 12.0069L5.51043 26.2569C4.32293 24.0139 3.66321 21.5069 3.66321 18.8681C3.66321 10.2917 10.5243 3.29861 18.9688 3.29861C27.4132 3.29861 34.2743 10.4236 34.2743 19C34.4063 20.7153 33.8785 22.0347 32.8229 22.6944ZM37.7049 19C37.7049 8.44445 29.2604 0 18.9688 0C8.6771 0 0.232651 8.57639 0.232651 19C0.232651 29.4236 8.6771 38 18.9688 38C23.7188 38 28.2049 36.1528 31.7674 32.8542C32.4271 32.1944 32.559 31.1389 31.8993 30.3472C31.2396 29.6875 30.184 29.5556 29.5243 30.2153C26.7535 32.8542 22.9271 34.4375 19.1007 34.4375C14.6146 34.4375 10.5243 32.4583 7.62154 29.2917L15.6701 16.3611V22.2986C15.6701 25.2014 16.7257 26.125 17.6493 26.3889C18.5729 26.6528 20.0243 26.5208 21.4757 24.0139L25.8299 16.8889C25.9618 16.625 26.0938 16.4931 26.2257 16.2292V19.7917C26.2257 22.4306 27.2813 24.5417 29.1285 25.5972C30.8438 26.5208 32.9549 26.5208 34.6702 25.3333C36.7813 24.4097 37.8368 21.9028 37.7049 19ZM63.8299 12.5347C64.2257 12.7986 64.6215 13.4583 64.6215 13.9861C64.6215 14.9097 63.8299 15.5694 63.0382 15.5694C62.7743 15.5694 62.6424 15.5694 62.3785 15.4375C61.3229 14.6458 60.1354 14.25 58.816 14.25C55.6493 14.25 53.5382 16.7569 53.5382 19.9236C53.5382 23.0903 55.6493 25.5972 58.816 25.5972C60.3993 25.5972 61.7188 24.9375 62.7743 24.0139C63.0382 23.8819 63.434 23.75 63.6979 23.75C64.4896 23.75 65.1493 24.4097 65.1493 25.3333C65.1493 25.8611 64.7535 26.3889 64.3576 26.6528C62.9063 27.9722 60.7951 28.7639 58.684 28.7639C53.934 28.7639 49.9757 24.8056 49.9757 19.9236C49.9757 15.0417 53.934 11.0833 58.684 11.0833C60.7951 10.9514 62.5104 11.4792 63.8299 12.5347ZM72.6701 16.2292C75.9688 16.2292 78.7396 19 78.7396 22.4306C78.7396 25.8611 75.9688 28.7639 72.6701 28.7639C69.2396 28.7639 66.3368 25.8611 66.3368 22.4306C66.3368 19 69.2396 16.2292 72.6701 16.2292ZM72.6701 25.5972C74.1215 25.5972 75.309 24.2778 75.309 22.4306C75.309 20.5833 74.1215 19.3958 72.6701 19.3958C71.0868 19.3958 69.7674 20.5833 69.7674 22.4306C69.7674 24.2778 71.0868 25.5972 72.6701 25.5972ZM80.7188 26.7847V18.0764C80.7188 17.1528 81.5104 16.3611 82.434 16.3611C83.3576 16.3611 84.1493 17.1528 84.1493 18.0764V26.7847C84.1493 27.7083 83.3576 28.5 82.434 28.5C81.5104 28.5 80.7188 27.7083 80.7188 26.7847ZM80.4549 13.0625C80.4549 11.875 81.3785 11.0833 82.434 11.0833C83.4896 11.0833 84.4132 12.0069 84.4132 13.0625C84.4132 14.1181 83.4896 15.0417 82.434 15.0417C81.3785 15.0417 80.4549 14.1181 80.4549 13.0625ZM90.6146 22.0347V26.7847C90.6146 27.7083 89.8229 28.5 88.8993 28.5C87.9757 28.5 87.184 27.7083 87.184 26.7847V17.6806C87.184 16.8889 87.8437 16.3611 88.5035 16.3611C89.1632 16.3611 89.8229 17.0208 89.8229 17.6806C91.1424 16.3611 92.4618 16.2292 93.5174 16.2292C96.9479 16.2292 98.3993 18.7361 98.3993 21.6389V26.7847C98.3993 27.7083 97.6077 28.5 96.684 28.5C95.7604 28.5 94.9688 27.7083 94.9688 26.7847V22.0347C94.9688 20.5833 94.8368 19.2639 92.5938 19.2639C91.2743 19.2639 90.6146 20.5833 90.6146 22.0347ZM109.615 23.8819C109.219 23.8819 108.955 23.75 108.691 23.4861L104.733 19.1319V26.7847C104.733 27.7083 103.941 28.5 103.017 28.5C102.094 28.5 101.302 27.7083 101.302 26.7847V11.6111C101.434 11.3472 101.698 11.2153 101.962 11.2153C102.226 11.2153 102.49 11.4792 102.622 11.6111L108.955 18.7361C109.087 19 109.351 19.1319 109.483 19.1319C109.615 19.1319 109.878 19 110.01 18.7361L116.344 11.6111C116.476 11.4792 116.74 11.2153 117.003 11.2153C117.267 11.2153 117.531 11.3472 117.663 11.6111V26.7847C117.663 27.7083 116.872 28.5 115.948 28.5C115.024 28.5 114.233 27.7083 114.233 26.7847V19.1319L110.274 23.4861C110.142 23.6181 109.878 23.8819 109.615 23.8819ZM125.844 25.5972C127.427 25.5972 128.615 24.2778 128.615 22.4306C128.615 20.5833 127.295 19.3958 125.844 19.3958C124.392 19.3958 123.205 20.5833 123.205 22.4306C123.205 24.1458 124.392 25.5972 125.844 25.5972ZM129.538 27.1805V26.7847C128.878 28.1042 126.767 28.6319 125.448 28.6319C122.281 28.6319 119.906 25.7292 119.906 22.2986C119.906 18.8681 122.281 16.0972 125.58 16.0972C126.108 16.0972 128.087 16.2292 129.538 17.9444V17.5486C129.538 16.7569 130.066 16.2292 130.858 16.2292C131.517 16.2292 132.177 16.8889 132.177 17.5486V27.0486C132.177 27.8403 131.517 28.3681 130.858 28.3681C130.066 28.5 129.538 27.9722 129.538 27.1805ZM141.545 19.2639H141.149C139.038 19.3958 138.642 20.5833 138.642 22.0347V26.7847C138.642 27.7083 137.851 28.5 136.927 28.5C136.003 28.5 135.212 27.7083 135.212 26.7847V17.6806C135.212 16.8889 135.872 16.3611 136.531 16.3611C137.191 16.3611 137.851 17.0208 137.851 17.6806C139.17 16.4931 140.094 16.2292 141.149 16.2292H141.545C142.337 16.2292 143.128 16.8889 143.128 17.8125C142.997 18.6042 142.337 19.2639 141.545 19.2639ZM154.608 25.9931C154.74 26.2569 154.872 26.5208 154.872 26.7847C154.872 27.7083 154.08 28.5 153.156 28.5C152.497 28.5 152.101 28.1042 151.705 27.5764L147.747 23.0903V26.7847C147.747 27.7083 146.955 28.5 146.031 28.5C145.108 28.5 144.316 27.7083 144.316 26.7847V12.9306C144.316 12.0069 145.108 11.2153 146.031 11.2153C146.955 11.2153 147.747 12.0069 147.747 12.9306V21.6389L151.705 17.2847C152.101 16.8889 152.628 16.3611 153.156 16.3611C153.948 16.3611 154.74 17.1528 154.74 18.0764C154.74 18.3403 154.74 18.6042 154.476 18.8681L151.441 22.2986L154.608 25.9931ZM161.205 19.3958C160.281 19.3958 158.83 19.9236 158.83 21.375H163.712C163.712 19.7917 162.128 19.3958 161.205 19.3958ZM165.691 23.4861H158.83C158.83 25.4653 160.809 25.8611 161.601 25.8611C162.26 25.8611 163.184 25.7292 163.844 25.4653C164.108 25.3333 164.372 25.2014 164.767 25.2014C165.559 25.2014 166.087 25.8611 166.087 26.6528C166.087 27.1806 165.691 27.5764 165.295 27.8403C164.24 28.6319 162.92 28.7639 161.601 28.7639C158.17 28.7639 155.267 26.9167 155.267 22.5625C155.267 19.1319 156.983 16.2292 161.073 16.2292C164.372 16.2292 166.878 18.3403 166.878 22.1667C167.01 22.8264 166.483 23.4861 165.691 23.4861ZM175.191 28.6319H174.267C171.628 28.6319 170.177 27.4444 170.177 23.4861V19.2639H169.253C168.462 19.2639 167.67 18.4722 167.67 17.6806C167.67 16.7569 168.33 16.0972 169.253 16.0972H170.177V12.9306C170.177 12.0069 170.969 11.2153 171.892 11.2153C172.816 11.2153 173.608 12.0069 173.608 12.9306V16.0972H175.059C175.851 16.0972 176.642 16.7569 176.642 17.6806C176.642 18.4722 175.983 19.2639 175.059 19.2639H173.608V22.8264C173.608 25.2014 173.74 25.5972 174.795 25.5972H175.323C176.115 25.5972 176.774 26.2569 176.774 27.1805C176.642 27.9722 175.983 28.6319 175.191 28.6319ZM191.552 12.5347C191.948 12.7986 192.344 13.4583 192.344 13.9861C192.344 14.9097 191.552 15.5694 190.76 15.5694C190.497 15.5694 190.365 15.5694 190.101 15.4375C189.045 14.6458 187.858 14.25 186.538 14.25C183.372 14.25 181.26 16.7569 181.26 19.9236C181.26 23.0903 183.372 25.5972 186.538 25.5972C188.122 25.5972 189.441 24.9375 190.497 24.0139C190.76 23.8819 191.156 23.75 191.42 23.75C192.212 23.75 192.872 24.4097 192.872 25.3333C192.872 25.8611 192.476 26.3889 192.08 26.6528C190.628 27.9722 188.517 28.7639 186.406 28.7639C181.656 28.7639 177.698 24.8056 177.698 19.9236C177.698 15.0417 181.656 11.0833 186.406 11.0833C188.517 10.9514 190.233 11.4792 191.552 12.5347ZM200.26 25.5972C201.844 25.5972 203.031 24.2778 203.031 22.4306C203.031 20.5833 201.712 19.3958 200.26 19.3958C198.809 19.3958 197.622 20.5833 197.622 22.4306C197.49 24.1458 198.677 25.5972 200.26 25.5972ZM203.823 27.1805V26.7847C203.163 28.1042 201.052 28.6319 199.733 28.6319C196.566 28.6319 194.191 25.7292 194.191 22.2986C194.191 18.8681 196.566 16.0972 199.865 16.0972C200.392 16.0972 202.372 16.2292 203.823 17.9444V17.5486C203.823 16.7569 204.351 16.2292 205.142 16.2292C205.802 16.2292 206.462 16.8889 206.462 17.5486V27.0486C206.462 27.8403 205.802 28.3681 205.142 28.3681C204.351 28.5 203.823 27.9722 203.823 27.1805ZM215.83 25.5972C217.281 25.5972 218.469 24.1458 218.469 22.4306C218.469 20.5833 217.281 19.3958 215.83 19.3958C214.378 19.3958 213.059 20.5833 213.059 22.4306C212.927 24.2778 214.247 25.5972 215.83 25.5972ZM212.927 27.7083V32.0625C212.927 32.9861 212.135 33.7778 211.212 33.7778C210.288 33.7778 209.497 32.9861 209.497 32.0625V17.6806C209.497 16.8889 210.156 16.3611 210.816 16.3611C211.476 16.3611 212.135 17.0208 212.135 17.8125C213.455 16.4931 214.906 16.2292 216.094 16.2292C219.392 16.2292 221.767 19 221.767 22.4306C221.767 25.8611 219.392 28.7639 216.226 28.7639C215.302 28.6319 213.851 28.3681 212.927 27.7083Z" fill="white"/>
</svg>
