<svg width="141" height="25" viewBox="0 0 141 25" fill="none" xmlns="http://www.w3.org/2000/svg">
<path fill-rule="evenodd" clip-rule="evenodd" d="M21.2059 14.8333C20.789 15.0833 20.2887 15.1667 19.9551 14.9167C19.4548 14.6667 19.2047 14 19.2047 13.1667V10.5C19.2047 9.25 18.7044 8.33333 17.8706 8.08333C16.4531 7.66666 15.3691 9.41667 14.9522 10.0833L12.4507 14.1667V9.16667C12.4507 8 12.0338 7.33333 11.3667 7.16667C10.8664 7 10.1993 7.08333 9.53227 8.08333L3.94561 17.0833C3.19516 15.6667 2.77825 14.0833 2.77825 12.4167C2.77825 7 7.11416 2.58333 12.4507 2.58333C17.7872 2.58333 22.1231 7.08333 22.1231 12.5C22.2065 13.5833 21.8729 14.4167 21.2059 14.8333ZM24.2911 12.5C24.2911 5.83333 18.9545 0.5 12.4507 0.5C5.9468 0.5 0.610291 5.91667 0.610291 12.5C0.610291 19.0833 5.9468 24.5 12.4507 24.5C15.4525 24.5 18.2875 23.3333 20.5388 21.25C20.9557 20.8333 21.0391 20.1667 20.6222 19.6667C20.2053 19.25 19.5382 19.1667 19.1213 19.5833C17.3703 21.25 14.9522 22.25 12.5341 22.25C9.69903 22.25 7.11416 21 5.27974 19L10.3661 10.8333V14.5833C10.3661 16.4167 11.0332 17 11.6168 17.1667C12.2005 17.3333 13.1177 17.25 14.035 15.6667L16.7866 11.1667C16.87 11 16.9534 10.9167 17.0367 10.75V13C17.0367 14.6667 17.7038 16 18.8712 16.6667C19.9551 17.25 21.2893 17.25 22.3732 16.5C23.7074 15.9167 24.3744 14.3333 24.2911 12.5ZM40.8009 8.41667C41.051 8.58333 41.3012 9 41.3012 9.33333C41.3012 9.91666 40.8009 10.3333 40.3006 10.3333C40.1338 10.3333 40.0504 10.3333 39.8837 10.25C39.2166 9.75 38.4662 9.5 37.6323 9.5C35.6311 9.5 34.297 11.0833 34.297 13.0833C34.297 15.0833 35.6311 16.6667 37.6323 16.6667C38.6329 16.6667 39.4668 16.25 40.1338 15.6667C40.3006 15.5833 40.5507 15.5 40.7175 15.5C41.2178 15.5 41.6347 15.9167 41.6347 16.5C41.6347 16.8333 41.3846 17.1667 41.1344 17.3333C40.2172 18.1667 38.8831 18.6667 37.5489 18.6667C34.5472 18.6667 32.0457 16.1667 32.0457 13.0833C32.0457 10 34.5472 7.5 37.5489 7.5C38.8831 7.41667 39.9671 7.75 40.8009 8.41667ZM46.3875 10.75C48.4721 10.75 50.2232 12.5 50.2232 14.6667C50.2232 16.8333 48.4721 18.6667 46.3875 18.6667C44.2196 18.6667 42.3852 16.8333 42.3852 14.6667C42.3852 12.5 44.2196 10.75 46.3875 10.75ZM46.3875 16.6667C47.3048 16.6667 48.0552 15.8333 48.0552 14.6667C48.0552 13.5 47.3048 12.75 46.3875 12.75C45.3869 12.75 44.5531 13.5 44.5531 14.6667C44.5531 15.8333 45.3869 16.6667 46.3875 16.6667ZM51.4739 17.4167V11.9167C51.4739 11.3333 51.9742 10.8333 52.5579 10.8333C53.1416 10.8333 53.6419 11.3333 53.6419 11.9167V17.4167C53.6419 18 53.1416 18.5 52.5579 18.5C51.9742 18.5 51.4739 18 51.4739 17.4167ZM51.3071 8.75C51.3071 8 51.8908 7.5 52.5579 7.5C53.2249 7.5 53.8086 8.08333 53.8086 8.75C53.8086 9.41667 53.2249 10 52.5579 10C51.8908 10 51.3071 9.41667 51.3071 8.75ZM57.7276 14.4167V17.4167C57.7276 18 57.2273 18.5 56.6436 18.5C56.06 18.5 55.5597 18 55.5597 17.4167V11.6667C55.5597 11.1667 55.9766 10.8333 56.3935 10.8333C56.8104 10.8333 57.2273 11.25 57.2273 11.6667C58.0612 10.8333 58.895 10.75 59.562 10.75C61.73 10.75 62.6472 12.3333 62.6472 14.1667V17.4167C62.6472 18 62.1469 18.5 61.5632 18.5C60.9796 18.5 60.4793 18 60.4793 17.4167V14.4167C60.4793 13.5 60.3959 12.6667 58.9784 12.6667C58.1445 12.6667 57.7276 13.5 57.7276 14.4167ZM69.7348 15.5833C69.4846 15.5833 69.3179 15.5 69.1511 15.3333L66.6496 12.5833V17.4167C66.6496 18 66.1493 18.5 65.5656 18.5C64.9819 18.5 64.4817 18 64.4817 17.4167V7.83334C64.565 7.66667 64.7318 7.58333 64.8986 7.58333C65.0653 7.58333 65.2321 7.75 65.3155 7.83334L69.3179 12.3333C69.4012 12.5 69.568 12.5833 69.6514 12.5833C69.7348 12.5833 69.9015 12.5 69.9849 12.3333L73.9873 7.83334C74.0707 7.75 74.2374 7.58333 74.4042 7.58333C74.571 7.58333 74.7377 7.66667 74.8211 7.83334V17.4167C74.8211 18 74.3208 18.5 73.7372 18.5C73.1535 18.5 72.6532 18 72.6532 17.4167V12.5833L70.1517 15.3333C70.0683 15.4167 69.9015 15.5833 69.7348 15.5833ZM79.9909 16.6667C80.9915 16.6667 81.7419 15.8333 81.7419 14.6667C81.7419 13.5 80.9081 12.75 79.9909 12.75C79.0737 12.75 78.3232 13.5 78.3232 14.6667C78.3232 15.75 79.0737 16.6667 79.9909 16.6667ZM82.3256 17.6667V17.4167C81.9087 18.25 80.5746 18.5833 79.7407 18.5833C77.7395 18.5833 76.2386 16.75 76.2386 14.5833C76.2386 12.4167 77.7395 10.6667 79.8241 10.6667C80.1576 10.6667 81.4084 10.75 82.3256 11.8333V11.5833C82.3256 11.0833 82.6591 10.75 83.1594 10.75C83.5763 10.75 83.9933 11.1667 83.9933 11.5833V17.5833C83.9933 18.0833 83.5763 18.4167 83.1594 18.4167C82.6591 18.5 82.3256 18.1667 82.3256 17.6667ZM89.9134 12.6667H89.6633C88.3292 12.75 88.079 13.5 88.079 14.4167V17.4167C88.079 18 87.5787 18.5 86.9951 18.5C86.4114 18.5 85.9111 18 85.9111 17.4167V11.6667C85.9111 11.1667 86.328 10.8333 86.7449 10.8333C87.1618 10.8333 87.5787 11.25 87.5787 11.6667C88.4126 10.9167 88.9962 10.75 89.6633 10.75H89.9134C90.4137 10.75 90.914 11.1667 90.914 11.75C90.8307 12.25 90.4137 12.6667 89.9134 12.6667ZM98.1684 16.9167C98.2517 17.0833 98.3351 17.25 98.3351 17.4167C98.3351 18 97.8348 18.5 97.2511 18.5C96.8342 18.5 96.5841 18.25 96.3339 17.9167L93.8325 15.0833V17.4167C93.8325 18 93.3322 18.5 92.7485 18.5C92.1648 18.5 91.6645 18 91.6645 17.4167V8.66667C91.6645 8.08334 92.1648 7.58333 92.7485 7.58333C93.3322 7.58333 93.8325 8.08334 93.8325 8.66667V14.1667L96.3339 11.4167C96.5841 11.1667 96.9176 10.8333 97.2511 10.8333C97.7514 10.8333 98.2517 11.3333 98.2517 11.9167C98.2517 12.0833 98.2517 12.25 98.085 12.4167L96.1672 14.5833L98.1684 16.9167ZM102.338 12.75C101.754 12.75 100.837 13.0833 100.837 14H103.922C103.922 13 102.921 12.75 102.338 12.75ZM105.173 15.3333H100.837C100.837 16.5833 102.087 16.8333 102.588 16.8333C103.005 16.8333 103.588 16.75 104.005 16.5833C104.172 16.5 104.339 16.4167 104.589 16.4167C105.089 16.4167 105.423 16.8333 105.423 17.3333C105.423 17.6667 105.173 17.9167 104.922 18.0833C104.255 18.5833 103.421 18.6667 102.588 18.6667C100.42 18.6667 98.5853 17.5 98.5853 14.75C98.5853 12.5833 99.6693 10.75 102.254 10.75C104.339 10.75 105.923 12.0833 105.923 14.5C106.006 14.9167 105.673 15.3333 105.173 15.3333ZM111.176 18.5833H110.592C108.925 18.5833 108.008 17.8333 108.008 15.3333V12.6667H107.424C106.924 12.6667 106.423 12.1667 106.423 11.6667C106.423 11.0833 106.84 10.6667 107.424 10.6667H108.008V8.66667C108.008 8.08334 108.508 7.58333 109.092 7.58333C109.675 7.58333 110.176 8.08334 110.176 8.66667V10.6667H111.093C111.593 10.6667 112.093 11.0833 112.093 11.6667C112.093 12.1667 111.676 12.6667 111.093 12.6667H110.176V14.9167C110.176 16.4167 110.259 16.6667 110.926 16.6667H111.259C111.76 16.6667 112.177 17.0833 112.177 17.6667C112.093 18.1667 111.676 18.5833 111.176 18.5833ZM121.516 8.41667C121.766 8.58333 122.016 9 122.016 9.33333C122.016 9.91666 121.516 10.3333 121.015 10.3333C120.849 10.3333 120.765 10.3333 120.598 10.25C119.931 9.75 119.181 9.5 118.347 9.5C116.346 9.5 115.012 11.0833 115.012 13.0833C115.012 15.0833 116.346 16.6667 118.347 16.6667C119.348 16.6667 120.181 16.25 120.849 15.6667C121.015 15.5833 121.265 15.5 121.432 15.5C121.933 15.5 122.349 15.9167 122.349 16.5C122.349 16.8333 122.099 17.1667 121.849 17.3333C120.932 18.1667 119.598 18.6667 118.264 18.6667C115.262 18.6667 112.76 16.1667 112.76 13.0833C112.76 10 115.262 7.5 118.264 7.5C119.598 7.41667 120.682 7.75 121.516 8.41667ZM127.019 16.6667C128.019 16.6667 128.77 15.8333 128.77 14.6667C128.77 13.5 127.936 12.75 127.019 12.75C126.102 12.75 125.351 13.5 125.351 14.6667C125.268 15.75 126.018 16.6667 127.019 16.6667ZM129.27 17.6667V17.4167C128.853 18.25 127.519 18.5833 126.685 18.5833C124.684 18.5833 123.183 16.75 123.183 14.5833C123.183 12.4167 124.684 10.6667 126.769 10.6667C127.102 10.6667 128.353 10.75 129.27 11.8333V11.5833C129.27 11.0833 129.604 10.75 130.104 10.75C130.521 10.75 130.938 11.1667 130.938 11.5833V17.5833C130.938 18.0833 130.521 18.4167 130.104 18.4167C129.604 18.5 129.27 18.1667 129.27 17.6667ZM136.858 16.6667C137.775 16.6667 138.526 15.75 138.526 14.6667C138.526 13.5 137.775 12.75 136.858 12.75C135.941 12.75 135.107 13.5 135.107 14.6667C135.024 15.8333 135.857 16.6667 136.858 16.6667ZM135.024 18V20.75C135.024 21.3333 134.523 21.8333 133.94 21.8333C133.356 21.8333 132.856 21.3333 132.856 20.75V11.6667C132.856 11.1667 133.273 10.8333 133.689 10.8333C134.106 10.8333 134.523 11.25 134.523 11.75C135.357 10.9167 136.274 10.75 137.025 10.75C139.109 10.75 140.61 12.5 140.61 14.6667C140.61 16.8333 139.109 18.6667 137.108 18.6667C136.525 18.5833 135.607 18.4167 135.024 18Z" fill="white"/>
</svg>
