<svg width="36" height="36" viewBox="0 0 36 36" fill="none" xmlns="http://www.w3.org/2000/svg">
<g clip-path="url(#clip0_1124_11179)">
<path d="M32.7123 5.84922L32.8911 6.95636C32.8911 7.02779 33.1056 8.20636 33.1056 10.0992C33.1056 11.8849 32.9268 14.2778 32.2832 16.9564C31.6397 19.4921 30.5313 22.5278 28.4575 25.4921C26.3838 28.4564 23.3804 31.3849 19.0184 33.7064L18.4821 33.9921L17.9816 33.7064C13.6196 31.3849 10.6162 28.4564 8.57821 25.4921C6.50447 22.5278 5.36034 19.4921 4.75251 16.9564C4.10894 14.2778 3.93017 11.8849 3.93017 10.0992C3.93017 8.20636 4.10894 7.02779 4.14469 6.95636L4.28771 5.84922C4.35922 5.45636 4.10894 5.09922 3.71564 5.0635C3.32235 4.99207 2.9648 5.24207 2.92905 5.63493L2.75028 6.74207C2.71453 6.84922 2.5 8.13493 2.5 10.0992C2.5 11.9564 2.67877 14.4921 3.3581 17.2778C4.00168 19.9564 5.21732 23.1349 7.39832 26.2778C9.57933 29.4206 12.7257 32.4921 17.3022 34.9564L18.1603 35.4206C18.3749 35.5278 18.6251 35.5278 18.8397 35.4206L19.6978 34.9564C24.2385 32.4921 27.4207 29.4206 29.6017 26.2778C31.7827 23.1349 32.9983 19.9564 33.6419 17.2778C34.3212 14.4921 34.5 11.9564 34.5 10.0635C34.5 8.09922 34.2855 6.84922 34.2855 6.70636L34.1067 5.59922C34.0352 5.20636 33.6777 4.95636 33.3201 5.02779C32.9268 5.09922 32.6408 5.45636 32.7123 5.84922Z" fill="white"/>
<path d="M8.11297 5.09821L18.5174 1.91964L29.1364 5.16964C29.494 5.27679 29.8873 5.0625 29.9945 4.70536C30.1018 4.34821 29.8873 3.95536 29.5297 3.84821L18.6962 0.526786C18.5889 0.491071 18.4459 0.491071 18.3029 0.526786L7.68392 3.74107C7.32638 3.84821 7.11185 4.24107 7.21911 4.59821C7.32638 4.99107 7.71967 5.20536 8.11297 5.09821Z" fill="white"/>
<path d="M2.96564 6.06418L17.8751 35.0999C17.9824 35.3142 18.2327 35.4928 18.483 35.4928C18.7332 35.4928 18.9835 35.3499 19.0908 35.1356L28.1723 18.1713V18.1356L34.0003 6.06418C34.179 5.70704 34.036 5.31418 33.6785 5.13561C33.3209 4.95704 32.9276 5.0999 32.7489 5.45704L26.9567 17.4928L18.5187 33.2785L4.21703 5.42132C4.03826 5.06418 3.60921 4.95704 3.28742 5.13561C2.92988 5.27847 2.78686 5.70704 2.96564 6.06418Z" fill="white"/>
<path d="M10.1155 18.9911H26.7054C27.0987 18.9911 27.4205 18.6696 27.4205 18.2768C27.4205 17.8839 27.0987 17.5625 26.7054 17.5625H10.1155C9.72218 17.5625 9.40039 17.8839 9.40039 18.2768C9.40039 18.6696 9.72218 18.9911 10.1155 18.9911Z" fill="white"/>
</g>
<defs>
<clipPath id="clip0_1124_11179">
<rect width="35" height="35" fill="white" transform="translate(0.5 0.5)"/>
</clipPath>
</defs>
</svg>
