<svg width="36" height="36" viewBox="0 0 36 36" fill="none" xmlns="http://www.w3.org/2000/svg">
<g clip-path="url(#clip0_1124_11186)">
<path fill-rule="evenodd" clip-rule="evenodd" d="M17.4932 0.687698C27.1798 0.687698 34.993 8.50093 34.993 18.2332C34.993 27.8284 27.0884 35.733 17.3561 35.6873C7.94367 35.5959 0.0390625 27.8284 0.0390625 18.1875C0.0390625 8.50093 7.8066 0.642007 17.4932 0.687698ZM4.19698 27.3258C4.19698 27.5085 4.28836 27.5999 4.37974 27.737C5.06511 28.6965 5.84187 29.6104 6.7557 30.3871C7.16692 30.7526 7.57814 31.1182 8.03506 31.438C9.31441 32.2604 10.6395 33.0372 12.1016 33.5398C13.2896 33.951 14.5232 34.2709 15.7569 34.4079C16.7164 34.4993 17.7216 34.545 18.6812 34.4079C19.2294 34.3166 19.8234 34.3166 20.3717 34.0881C20.4631 34.1338 20.5088 34.0424 20.5545 34.0424C21.6968 33.8597 22.7934 33.4941 23.89 33.0372C27.4539 31.4837 30.1497 28.9707 31.886 25.4981C33.4395 22.4368 33.9421 19.1927 33.4395 15.8115C32.9826 12.5675 31.6118 9.73459 29.4186 7.35864C26.4944 4.02317 22.7477 2.2869 18.3156 2.01275C16.3509 1.87568 14.3862 2.14982 12.5128 2.7895C9.45149 3.79471 6.93846 5.53098 4.88235 8.04401C2.55209 10.9226 1.4098 14.2123 1.27273 17.8677C1.22704 18.7815 1.31842 19.6496 1.4555 20.5635C1.72964 22.6196 2.41501 24.5843 3.46592 26.3663C3.74006 26.6404 3.92283 27.0059 4.19698 27.3258Z" fill="white"/>
<path fill-rule="evenodd" clip-rule="evenodd" d="M20.372 34.0407C19.8237 34.3148 19.2297 34.3148 18.6814 34.3605C17.7219 34.4976 16.7167 34.4519 15.7572 34.3605C14.5235 34.2234 13.2899 33.9036 12.1019 33.4924C10.6398 32.9897 9.3147 32.213 8.03534 31.3906C7.57843 31.0707 7.16721 30.7052 6.75598 30.3397C5.84216 29.5629 5.0654 28.6491 4.38003 27.6895C4.28865 27.5525 4.19727 27.4154 4.19727 27.2783C5.29386 24.811 5.70508 22.2066 5.93354 19.5565C6.02492 18.3228 6.07061 17.0891 6.29907 15.8555C6.52753 14.439 7.07582 13.1597 8.08103 12.0631C8.99486 11.1036 10.1371 10.4639 11.3708 10.007C12.376 9.59576 13.4269 9.23023 14.5692 9.18454C15.6201 9.13884 16.6253 9.27592 17.6305 9.50438C19.1384 9.86991 20.6462 10.3268 22.0626 11.0122C23.2049 11.4691 24.3929 11.926 25.5808 12.2916C26.8145 12.6571 28.0482 13.0683 29.0991 13.8451C30.4241 14.8503 30.7897 16.1296 30.1957 17.6831C29.8301 18.6427 29.1448 19.3737 28.4594 20.1048C27.2257 21.3841 25.9007 22.5721 24.7127 23.8972C23.342 25.4964 22.1083 27.1413 21.2402 29.0603C20.5091 30.6595 20.0979 32.3044 20.372 34.0407ZM29.1905 19.0082C29.1448 19.0082 29.0991 19.0082 29.0534 19.0539C29.0077 19.0539 28.962 19.0996 28.962 19.1453C28.962 19.1453 28.962 19.1453 28.962 19.191C29.0077 19.191 29.0534 19.1453 29.0534 19.0996L29.1905 19.0082C29.2818 19.0082 29.2362 19.0082 29.1905 19.0082ZM15.2089 11.0579C13.4726 11.0579 12.0562 12.4743 12.0562 14.1649C12.0562 15.9012 13.4726 17.2719 15.1632 17.3176C16.8995 17.3176 18.2702 15.9012 18.3159 14.1649C18.3159 12.4286 16.9452 11.0579 15.2089 11.0579ZM17.7676 20.6531C18.0418 21.0643 18.5444 21.4298 19.1384 21.6126C20.3263 22.0238 21.5143 22.0238 22.7023 21.7954C24.8041 21.3841 26.7688 20.6531 28.5508 19.4651C28.6422 19.3737 28.8249 19.3737 28.8706 19.191C28.7792 19.1453 28.7335 19.1909 28.6879 19.2366C28.0939 19.6022 27.4542 19.8763 26.8145 20.1505C25.1696 20.8358 23.4333 21.2928 21.6057 21.3841C20.2806 21.4755 18.9556 21.3841 17.7676 20.6531ZM26.4033 17.9573C26.7688 17.9573 27.0887 17.6374 27.0887 17.2262C27.0887 16.8607 26.7688 16.5409 26.3576 16.5865C25.9921 16.5865 25.7179 16.9064 25.7179 17.2719C25.7179 17.6831 25.9921 17.9573 26.4033 17.9573Z" fill="#A9ACBF"/>
<path fill-rule="evenodd" clip-rule="evenodd" d="M17.5854 9.50434C16.5802 9.32157 15.575 9.13881 14.5241 9.1845C13.3818 9.23019 12.3766 9.59572 11.3257 10.0069C10.092 10.4639 8.94976 11.1035 8.03593 12.0631C7.03072 13.114 6.48242 14.3933 6.25397 15.8554C6.0712 17.0891 6.02551 18.3228 5.88844 19.5564C5.65998 22.2065 5.24876 24.8566 4.15216 27.2783C3.83232 27.0041 3.64956 26.5929 3.46679 26.2731C2.41589 24.4911 1.73052 22.5264 1.45637 20.4703C1.3193 19.5564 1.22791 18.6883 1.2736 17.7745C1.41068 14.1192 2.55296 10.8294 4.88323 7.95083C6.89365 5.4378 9.45236 3.70153 12.5137 2.69632C14.387 2.10233 16.3518 1.82819 18.3165 1.91957C22.7029 2.19372 26.4496 3.97568 29.4195 7.21977C31.6127 9.64141 32.9377 12.4743 33.4403 15.6727C33.943 19.0538 33.4403 22.2979 31.8868 25.3592C30.1506 28.8318 27.4548 31.3448 23.8908 32.8983C22.8399 33.3552 21.7433 33.7208 20.5554 33.9035C20.464 33.9035 20.4183 34.0406 20.3726 33.9492C20.0985 32.213 20.5097 30.5681 21.1951 28.9689C22.0632 27.0498 23.2969 25.4049 24.6676 23.8057C25.8099 22.4807 27.1349 21.247 28.4143 20.0134C29.1454 19.2823 29.785 18.5512 30.1506 17.5917C30.7902 16.0382 30.4247 14.7588 29.054 13.7536C28.0031 12.9769 26.7694 12.5657 25.5357 12.2001C24.3478 11.8346 23.1598 11.3777 22.0175 10.9208C21.789 10.144 21.2407 9.64141 20.5097 9.36726C19.5502 9.13881 18.5906 9.23019 17.5854 9.50434ZM32.5265 19.2366H32.6179C32.8007 18.5969 32.8007 17.9116 32.8007 17.2262C32.8007 16.4494 32.7093 15.6727 32.5722 14.8959C32.0696 12.3829 30.9273 10.1897 29.1454 8.31636C28.0488 7.17408 26.8151 6.21456 25.5814 5.20935C24.4848 4.29552 23.2969 3.61015 21.9261 3.24462C20.6011 2.92478 19.3217 2.74201 17.951 2.97047C17.8596 2.97047 17.7682 2.97047 17.7682 3.06185C17.7682 3.15324 17.8596 3.15323 17.951 3.15323C19.9614 3.51877 21.8804 4.15845 23.7538 4.88951C25.5814 5.62057 27.1349 6.67147 28.2772 8.31636C29.054 9.45865 29.785 10.6466 30.379 11.926C31.1558 13.6623 31.7498 15.4442 32.1153 17.2719C32.2981 18.0029 32.4351 18.5969 32.5265 19.2366Z" fill="white"/>
<path fill-rule="evenodd" clip-rule="evenodd" d="M15.2093 11.0625C16.9456 11.0625 18.3164 12.4789 18.3164 14.1695C18.3164 15.9058 16.8999 17.2765 15.1637 17.3222C13.4274 17.3222 12.0566 15.9058 12.0566 14.1695C12.0566 12.4332 13.4731 11.0625 15.2093 11.0625ZM17.4025 14.2152C17.4025 12.9815 16.443 12.022 15.2093 12.022C13.9757 12.022 13.0162 12.9815 13.0162 14.2152C13.0162 15.4032 13.9757 16.4084 15.1637 16.4084H15.2093C16.3973 16.4084 17.3568 15.4489 17.4025 14.2152Z" fill="#FCFDFB"/>
<path fill-rule="evenodd" clip-rule="evenodd" d="M17.7687 20.6554C18.9567 21.3865 20.2817 21.4779 21.6068 21.4322C23.4344 21.3408 25.1707 20.9296 26.8156 20.1985C27.4553 19.9244 28.095 19.6502 28.6889 19.2847C28.7346 19.239 28.7803 19.1933 28.8717 19.239C28.826 19.3761 28.6889 19.4218 28.5519 19.5131C26.7699 20.7011 24.8052 21.4322 22.7034 21.8434C21.5154 22.0719 20.2817 22.0718 19.1394 21.6606C18.5455 21.4322 17.9972 21.0666 17.7687 20.6554ZM17.5859 9.50672C18.5455 9.23257 19.5507 9.14119 20.5102 9.50672C21.2412 9.78086 21.7895 10.2835 22.018 11.0602C20.6473 10.3292 19.1394 9.87225 17.5859 9.50672Z" fill="#7E8295"/>
<path fill-rule="evenodd" clip-rule="evenodd" d="M26.4061 17.9567C26.0405 17.9567 25.7207 17.6368 25.7207 17.2713C25.7207 16.9058 25.9948 16.5859 26.3604 16.5859C26.7259 16.5859 27.0458 16.8601 27.0914 17.2256C27.0458 17.6368 26.7716 17.9567 26.4061 17.9567Z" fill="#FCFDFB"/>
<path fill-rule="evenodd" clip-rule="evenodd" d="M29.0543 19.1031C29.0543 19.1488 29.0086 19.1945 28.9629 19.1945C28.9629 19.1031 29.0086 19.0574 29.0543 19.1031ZM29.1913 19.0117L29.0543 19.1031L29.0086 19.0574C29.1 19.0117 29.1457 19.0117 29.1913 19.0117Z" fill="#A9ACBF"/>
<path fill-rule="evenodd" clip-rule="evenodd" d="M32.5251 19.2357C32.3881 18.596 32.251 18.002 32.1596 17.3623C31.7941 15.489 31.1544 13.707 30.4233 12.0164C29.875 10.7371 29.144 9.54908 28.3215 8.4068C27.1792 6.76191 25.6714 5.71101 23.7981 4.97995C21.879 4.24888 20.0057 3.56351 17.9953 3.24367C17.9039 3.24367 17.8125 3.24367 17.8125 3.15229C17.8125 3.06091 17.9039 3.06091 17.9953 3.06091C19.3203 2.83245 20.6454 2.96953 21.9704 3.33506C23.3412 3.70059 24.5291 4.43165 25.6257 5.29978C26.8594 6.30499 28.0931 7.26452 29.1897 8.4068C30.9716 10.2801 32.1139 12.4733 32.6165 14.9864C32.7536 15.7631 32.845 16.5399 32.845 17.3166C32.845 17.9563 32.845 18.6417 32.6622 19.327L32.5251 19.2357Z" fill="#FFFEFC"/>
<path fill-rule="evenodd" clip-rule="evenodd" d="M17.402 14.2154C17.402 15.4034 16.4425 16.4086 15.2545 16.4086H15.2088C14.0208 16.4086 13.0156 15.4491 13.0156 14.2154V14.1697C13.0156 12.9361 14.0208 11.9766 15.2088 11.9766C16.3968 11.9766 17.402 12.9818 17.402 14.2154Z" fill="#7E8295"/>
</g>
<defs>
<clipPath id="clip0_1124_11186">
<rect width="35" height="35" fill="white" transform="translate(0.5 0.5)"/>
</clipPath>
</defs>
</svg>
