<svg width="36" height="36" viewBox="0 0 36 36" fill="none" xmlns="http://www.w3.org/2000/svg">
<g clip-path="url(#clip0_1124_11199)">
<path fill-rule="evenodd" clip-rule="evenodd" d="M31.5174 21.4028C30.9097 21.7674 30.1806 21.8889 29.6944 21.5243C28.9653 21.1597 28.6007 20.1875 28.6007 18.9722V15.0833C28.6007 13.2604 27.8715 11.9236 26.6562 11.559C24.5903 10.9514 23.0104 13.5035 22.4028 14.4757L18.7569 20.4306V13.1389C18.7569 11.4375 18.1493 10.4653 17.1771 10.2222C16.4479 9.97917 15.4757 10.1007 14.5035 11.559L6.36111 24.684C5.26736 22.6181 4.65972 20.309 4.65972 17.8785C4.65972 9.97917 10.9792 3.53819 18.7569 3.53819C26.5347 3.53819 32.8542 10.1007 32.8542 18C32.9757 19.5799 32.4896 20.7951 31.5174 21.4028ZM36.0139 18C36.0139 8.27778 28.2361 0.5 18.7569 0.5C9.27778 0.5 1.5 8.39931 1.5 18C1.5 27.6007 9.27778 35.5 18.7569 35.5C23.1319 35.5 27.2639 33.7986 30.5451 30.7604C31.1528 30.1528 31.2743 29.1806 30.6667 28.4514C30.059 27.8437 29.0868 27.7222 28.4792 28.3299C25.9271 30.7604 22.4028 32.2187 18.8785 32.2187C14.7465 32.2187 10.9792 30.3958 8.30555 27.4792L15.7187 15.5694V21.0382C15.7187 23.7118 16.691 24.5625 17.5417 24.8056C18.3924 25.0486 19.7292 24.9271 21.066 22.6181L25.0764 16.0556C25.1979 15.8125 25.3194 15.691 25.441 15.4479V18.7292C25.441 21.1597 26.4132 23.1042 28.1146 24.0764C29.6944 24.9271 31.6389 24.9271 33.2187 23.8333C35.1632 22.9826 36.1354 20.6736 36.0139 18Z" fill="white"/>
</g>
<defs>
<clipPath id="clip0_1124_11199">
<rect width="35" height="35" fill="white" transform="translate(0.5 0.5)"/>
</clipPath>
</defs>
</svg>
