<svg width="12" height="13" viewBox="0 0 12 13" fill="none" xmlns="http://www.w3.org/2000/svg">
<path d="M9.75 0.832031C10.3359 0.832031 10.5 1.39453 10.5 1.58203V11.332C10.5 11.5664 10.3125 12.082 9.75 12.082C9.58594 12.082 9.375 12.0117 9.28125 11.918L7.26562 10.3242C6.28125 9.52734 5.01562 9.08203 3.75 9.08203H1.5C0.65625 9.08203 0 8.42578 0 7.58203V5.33203C0 4.51172 0.65625 3.83203 1.5 3.83203H3.75C5.01562 3.83203 6.28125 3.41016 7.28906 2.61328L9.28125 1.01953C9.39844 0.902344 9.5625 0.832031 9.75 0.832031ZM3.75 8.33203V4.58203H1.5C1.07812 4.58203 0.75 4.93359 0.75 5.33203V7.58203C0.75 8.00391 1.07812 8.33203 1.5 8.33203H3.75ZM9.72656 11.332C9.72656 11.332 9.75 11.332 9.72656 11.3086V1.60547L7.73438 3.19922C6.79688 3.94922 5.67188 4.39453 4.5 4.53516V8.40234C5.67188 8.54297 6.79688 8.98828 7.73438 9.73828L9.72656 11.332ZM4.47656 9.83203C4.5 10.4414 4.96875 11.0273 4.96875 11.0273C5.22656 11.332 5.32031 11.7773 5.17969 12.1523C5.01562 12.5742 4.66406 12.832 4.26562 12.832H3.04688C2.74219 12.832 2.46094 12.6914 2.27344 12.4336C2.20312 12.3164 1.45312 11.2148 1.5 9.83203C1.5 9.62109 1.66406 9.45703 1.875 9.45703C2.08594 9.48047 2.25 9.64453 2.25 9.85547C2.20312 11.0273 2.85938 11.9648 2.90625 11.9883C2.92969 12.0586 3 12.082 3.04688 12.082H4.26562C4.33594 12.082 4.42969 12.0117 4.45312 11.918C4.5 11.7773 4.47656 11.6133 4.40625 11.5195C4.40625 11.5195 3.75 10.7461 3.72656 9.85547C3.72656 9.64453 3.89062 9.48047 4.10156 9.45703C4.3125 9.48047 4.47656 9.62109 4.47656 9.83203ZM11.625 5.33203C11.8125 5.33203 12 5.51953 12 5.70703V7.20703C12 7.41797 11.8125 7.58203 11.625 7.58203C11.4141 7.58203 11.25 7.41797 11.25 7.20703V5.70703C11.25 5.51953 11.4141 5.33203 11.625 5.33203Z" fill="#A6FF00"/>
</svg>
