<svg width="36" height="35" viewBox="0 0 36 35" fill="none" xmlns="http://www.w3.org/2000/svg">
<path d="M11.8748 2.91797H24.1248C28.7915 2.91797 32.5832 6.70964 32.5832 11.3763V23.6263C32.5832 25.8696 31.692 28.021 30.1058 29.6072C28.5195 31.1935 26.3681 32.0846 24.1248 32.0846H11.8748C7.20817 32.0846 3.4165 28.293 3.4165 23.6263V11.3763C3.4165 9.13301 4.30765 6.9816 5.89389 5.39536C7.48014 3.80911 9.63155 2.91797 11.8748 2.91797ZM11.5832 5.83464C10.1908 5.83464 8.85543 6.38776 7.87086 7.37232C6.88629 8.35689 6.33317 9.69225 6.33317 11.0846V23.918C6.33317 26.8201 8.68109 29.168 11.5832 29.168H24.4165C25.8089 29.168 27.1443 28.6148 28.1288 27.6303C29.1134 26.6457 29.6665 25.3104 29.6665 23.918V11.0846C29.6665 8.18255 27.3186 5.83464 24.4165 5.83464H11.5832ZM25.6561 8.02214C26.1396 8.02214 26.6032 8.21419 26.9451 8.55606C27.2869 8.89792 27.479 9.36158 27.479 9.84505C27.479 10.3285 27.2869 10.7922 26.9451 11.134C26.6032 11.4759 26.1396 11.668 25.6561 11.668C25.1726 11.668 24.709 11.4759 24.3671 11.134C24.0252 10.7922 23.8332 10.3285 23.8332 9.84505C23.8332 9.36158 24.0252 8.89792 24.3671 8.55606C24.709 8.21419 25.1726 8.02214 25.6561 8.02214ZM17.9998 10.2096C19.9337 10.2096 21.7884 10.9779 23.1558 12.3453C24.5233 13.7128 25.2915 15.5674 25.2915 17.5013C25.2915 19.4352 24.5233 21.2898 23.1558 22.6573C21.7884 24.0247 19.9337 24.793 17.9998 24.793C16.066 24.793 14.2113 24.0247 12.8439 22.6573C11.4764 21.2898 10.7082 19.4352 10.7082 17.5013C10.7082 15.5674 11.4764 13.7128 12.8439 12.3453C14.2113 10.9779 16.066 10.2096 17.9998 10.2096ZM17.9998 13.1263C16.8395 13.1263 15.7267 13.5872 14.9062 14.4077C14.0858 15.2282 13.6248 16.341 13.6248 17.5013C13.6248 18.6616 14.0858 19.7744 14.9062 20.5949C15.7267 21.4154 16.8395 21.8763 17.9998 21.8763C19.1602 21.8763 20.273 21.4154 21.0934 20.5949C21.9139 19.7744 22.3748 18.6616 22.3748 17.5013C22.3748 16.341 21.9139 15.2282 21.0934 14.4077C20.273 13.5872 19.1602 13.1263 17.9998 13.1263Z" fill="white" fill-opacity="0.9"/>
</svg>
