<svg width="24" height="24" viewBox="0 0 24 24" fill="none" xmlns="http://www.w3.org/2000/svg">
<g clip-path="url(#clip0_1762_711)">
<mask id="mask0_1762_711" style="mask-type:luminance" maskUnits="userSpaceOnUse" x="1" y="3" width="23" height="20">
<path d="M23.5919 3H1.17303V22.0349H23.5919V3Z" fill="white"/>
</mask>
<g mask="url(#mask0_1762_711)">
<path d="M22.2057 14.5824C22.2057 15.0208 22.1261 15.4401 21.9805 15.8267C21.482 17.1472 20.2154 18.0853 18.7311 18.0853C17.2121 18.0853 15.9213 17.1027 15.4487 15.7333C12.6426 15.9367 11.0379 14.6721 10.3707 12.2619C8.68532 11.7998 7.44647 10.2461 7.44647 8.40033C7.44647 7.20656 7.96497 6.13463 8.7873 5.40188C9.48703 4.77733 10.4073 4.39844 11.4155 4.39844C12.5704 4.39844 13.6105 4.89564 14.3349 5.69039C14.8222 5.36914 15.4044 5.18293 16.0298 5.18293C16.4663 5.18293 16.8823 5.27399 17.2593 5.43816C18.35 5.91282 19.117 7.0001 19.134 8.27011C19.1346 8.28497 19.1346 8.29924 19.1346 8.31414L19.134 8.36709V8.36767C19.2926 8.33256 19.4572 8.31414 19.6266 8.31414C20.3829 8.31414 21.0548 8.67938 21.4783 9.24443H21.479C21.7727 9.63644 21.9467 10.1248 21.9467 10.6542C21.9478 11.2032 21.756 11.7349 21.4052 12.1549C21.3788 12.1872 21.3515 12.2188 21.3231 12.2494C21.8724 12.8686 22.2057 13.6866 22.2057 14.5824Z" fill="white"/>
<path d="M15.9909 8.11881C15.3623 8.80767 14.9783 9.72716 14.9783 10.7371C14.9783 12.8731 16.6958 14.6048 18.8142 14.6048C19.0875 14.6049 19.36 14.5757 19.6273 14.5177M11.2473 6.87036C11.3433 8.26724 12.4975 9.3704 13.9073 9.3704M18.1477 8.85166C18.4328 8.6128 18.771 8.4471 19.1334 8.36873M14.3344 5.69141C13.8878 5.9846 13.5209 6.39092 13.2737 6.87036" stroke="#4B4D4E" stroke-width="0.473941" stroke-miterlimit="10" stroke-linecap="round" stroke-linejoin="round"/>
<path d="M22.2053 14.5824C22.2053 16.5173 20.6498 18.0853 18.7307 18.0853C17.2117 18.0853 15.9209 17.1027 15.4484 15.7333C12.6422 15.9367 11.0376 14.6721 10.3703 12.2619C8.68495 11.7998 7.44611 10.2461 7.44611 8.40034C7.44611 6.19005 9.22291 4.39844 11.4151 4.39844C12.5701 4.39844 13.6101 4.89564 14.3346 5.6904C14.8218 5.36914 15.404 5.18294 16.0294 5.18294C17.7443 5.18294 19.1343 6.585 19.1343 8.31414L19.1336 8.3671V8.36768C19.2922 8.33258 19.4569 8.31414 19.6262 8.31414C20.9075 8.31414 21.9463 9.36158 21.9463 10.6542C21.9463 11.271 21.7098 11.8313 21.3227 12.2494C21.872 12.8686 22.2053 13.6865 22.2053 14.5824Z" stroke="#4B4D4E" stroke-width="0.41467" stroke-miterlimit="10" stroke-linejoin="round"/>
<path d="M21.3229 12.247C21.3229 12.247 21.0536 11.9652 20.6851 11.6719M10.9621 18.5998C10.81 18.2795 10.7127 17.9356 10.6743 17.5825" stroke="#4B4D4E" stroke-width="0.473941" stroke-miterlimit="10" stroke-linecap="round" stroke-linejoin="round"/>
<path d="M17.7748 16.1648C17.8976 16.5084 17.9603 16.8709 17.96 17.2361C17.96 19.1146 16.3248 20.6367 14.3072 20.6367C12.8112 20.6367 11.5257 19.7998 10.9617 18.6012C10.4969 18.9195 9.93938 19.1051 9.34062 19.1051C7.99803 19.1051 6.86533 18.1735 6.51022 16.8995C6.25669 16.9631 5.99636 16.9954 5.73507 16.9952C3.98122 16.9952 2.5589 15.5616 2.5589 13.7927C2.5589 12.4341 3.39834 11.273 4.58289 10.8084C4.53631 10.614 4.51153 10.4123 4.51153 10.2053C4.51153 8.60108 5.98991 7.30078 7.81392 7.30078C8.86105 7.30078 9.7954 7.73017 10.4001 8.39876C10.8851 8.13645 11.4443 7.98602 12.0401 7.98602C13.8883 7.98602 15.3867 9.43085 15.3867 11.2129C15.3869 11.2549 15.3859 11.297 15.3837 11.3389C16.9087 11.6209 18.0679 13.0331 18.0679 14.7331C18.0679 15.244 17.9635 15.7289 17.7748 16.1648Z" fill="white"/>
<path d="M16.5901 14.5811C17.1345 14.9867 17.5512 15.5352 17.7753 16.1645M6.51072 16.8991C6.43519 16.6291 6.39506 16.3441 6.39506 16.049C6.39506 14.8451 7.06701 13.8037 8.04277 13.3058M5.41053 10.607C5.12149 10.6368 4.84421 10.7052 4.58344 10.8081M10.4013 8.39902L10.4006 8.39844C9.98598 8.62449 9.62613 8.93266 9.34474 9.30026" stroke="#4B4D4E" stroke-width="0.473941" stroke-miterlimit="10" stroke-linecap="round" stroke-linejoin="round"/>
<path d="M17.7766 16.1648C17.8994 16.5084 17.962 16.8709 17.9618 17.2361C17.9618 19.1146 16.3264 20.6367 14.3088 20.6367C12.8129 20.6367 11.5274 19.7998 10.9634 18.6012C10.4987 18.9195 9.94109 19.105 9.34234 19.105C7.99974 19.105 6.86704 18.1735 6.51194 16.8995C6.25839 16.9631 5.99807 16.9954 5.73677 16.9952C3.98293 16.9952 2.56061 15.5616 2.56061 13.7927C2.56061 12.4341 3.40006 11.273 4.58461 10.8084C4.53802 10.614 4.51324 10.4123 4.51324 10.2053C4.51324 8.60108 5.99162 7.30078 7.81564 7.30078C8.86276 7.30078 9.79712 7.73017 10.4018 8.39877C10.8868 8.13645 11.446 7.98602 12.0419 7.98602C13.8901 7.98602 15.3884 9.43086 15.3884 11.2129C15.3887 11.2549 15.3876 11.297 15.3855 11.3389C16.9105 11.6209 18.0696 13.0331 18.0696 14.7331C18.0696 15.244 17.9652 15.7288 17.7765 16.1647L17.7766 16.1648Z" stroke="#4B4D4E" stroke-width="0.41467" stroke-miterlimit="10" stroke-linejoin="round"/>
<path d="M12.529 12.2985C13.1166 11.6751 13.9278 11.2891 14.8231 11.2891C15.0143 11.2891 15.2014 11.3063 15.3836 11.3401M15.1735 15.3919C14.7106 15.9756 13.9984 16.3495 13.1996 16.3495C11.8044 16.3495 10.6735 15.2091 10.6735 13.8025C10.6726 13.2151 10.8739 12.6457 11.243 12.1913" stroke="#4B4D4E" stroke-width="0.473941" stroke-miterlimit="10" stroke-linecap="round" stroke-linejoin="round"/>
<path d="M14.3174 17.6088C14.3174 17.1086 14.1923 16.6381 13.9716 16.2271M9.03814 15.9821C9.4546 15.3598 10.103 14.9095 10.8587 14.7567M4.53473 13.7942C4.85471 13.6665 5.19578 13.6008 5.53995 13.6009C6.09181 13.6001 6.63076 13.769 7.08492 14.0852M9.72812 11.45C9.55624 11.5011 9.3743 11.5284 9.186 11.5284C8.68622 11.5291 8.20607 11.3324 7.84836 10.9805M18.0185 11.3259C18.283 11.1269 18.6042 11.0197 18.9341 11.0202C19.0258 11.0202 19.1173 11.0284 19.2075 11.0447" stroke="#4B4D4E" stroke-width="0.473941" stroke-miterlimit="10" stroke-linecap="round" stroke-linejoin="round"/>
<path d="M21.5958 12.2519C21.9568 11.8002 22.1539 11.2401 22.1539 10.6553C22.1539 9.25023 21.0203 8.10706 19.6272 8.10706C19.5298 8.10706 19.4326 8.11277 19.3363 8.12401C19.2377 6.37131 17.7925 4.97594 16.0303 4.97594C15.4428 4.97594 14.8719 5.13105 14.3691 5.42603C13.5856 4.63656 12.5236 4.19257 11.4159 4.19141C9.5594 4.19141 7.98271 5.41978 7.44147 7.11253C5.68173 7.27853 4.30623 8.60306 4.30623 10.2074C4.30623 10.3671 4.32007 10.527 4.34738 10.6848C3.13039 11.2347 2.35364 12.4369 2.35364 13.7947C2.35364 15.6754 3.87108 17.2055 5.73625 17.2055C5.94924 17.2055 6.16177 17.1855 6.37106 17.1456C6.81377 18.4325 8.00899 19.3153 9.34185 19.3153C9.88267 19.3157 10.414 19.1723 10.8824 18.8997C11.5418 20.0899 12.8609 20.847 14.3084 20.847C16.0707 20.847 17.5599 19.7362 18.02 18.2244C18.2514 18.2703 18.4894 18.2946 18.7316 18.2946C20.7613 18.2946 22.4127 16.6297 22.4127 14.5835C22.4127 13.7311 22.1239 12.9101 21.5958 12.2519Z" stroke="#4B4D4E" stroke-width="0.829385" stroke-miterlimit="10" stroke-linejoin="round"/>
<path d="M11.4152 3C10.3246 3 9.27559 3.32745 8.38154 3.94688C7.60957 4.48173 6.99762 5.20314 6.59341 6.05024C4.62582 6.53102 3.21907 8.12753 3.13014 10.0154C1.91231 10.868 1.17303 12.2757 1.17303 13.793C1.17303 16.3031 3.17721 18.3501 5.65663 18.3927C6.43952 19.6897 7.83517 20.5032 9.34111 20.5032C9.72582 20.5032 10.1039 20.4518 10.4706 20.3499C11.4197 21.4142 12.8141 22.0349 14.3077 22.0349C15.3194 22.0349 16.2993 21.7456 17.1417 21.1985C17.8263 20.7541 18.3777 20.1673 18.7594 19.4823C21.4268 19.4669 23.5918 17.2745 23.5918 14.5818C23.5918 13.7499 23.3854 12.9426 22.9912 12.2208C23.2165 11.7296 23.3331 11.1948 23.333 10.6535C23.333 9.67328 22.9582 8.74635 22.2778 8.04358C21.7412 7.48932 21.062 7.1232 20.3229 6.9815C20.073 6.16373 19.5946 5.42692 18.9408 4.86535C18.1284 4.16808 17.0965 3.78494 16.0297 3.78445C15.5323 3.78445 15.0333 3.86953 14.563 4.03254C13.6496 3.36381 12.5487 3 11.4152 3ZM11.4152 3.77325C12.5209 3.77325 13.6054 4.18729 14.4359 4.91831C14.9341 4.68078 15.4784 4.55766 16.0296 4.5578C17.8652 4.5578 19.4066 5.90382 19.7027 7.68994C21.2883 7.73094 22.566 9.04467 22.566 10.6536C22.5654 11.2173 22.4059 11.7693 22.1061 12.2451C22.5715 12.929 22.8248 13.7471 22.8248 14.5818C22.8248 16.8577 20.9883 18.7093 18.7308 18.7093C18.5848 18.7093 18.4382 18.7013 18.2924 18.6854C17.6624 20.2188 16.0747 21.2617 14.3076 21.2617C12.8502 21.2617 11.5147 20.5725 10.7311 19.4394C10.2923 19.6309 9.81927 19.7298 9.34111 19.73C7.94794 19.73 6.68786 18.8877 6.10765 17.6019C5.98403 17.6141 5.85965 17.6202 5.7355 17.6202C3.64267 17.6202 1.93997 15.9033 1.93997 13.793C1.93997 12.392 2.70044 11.1085 3.90136 10.4419C3.89554 10.3633 3.89262 10.2845 3.8926 10.2057C3.8926 8.47479 5.26949 7.02059 7.13685 6.72936C7.81907 4.95038 9.50601 3.77325 11.4152 3.77325Z" fill="#F0F0F0"/>
</g>
</g>
<defs>
<clipPath id="clip0_1762_711">
<rect width="24" height="24" fill="white"/>
</clipPath>
</defs>
</svg>
