<svg width="18" height="19" viewBox="0 0 18 19" fill="none" xmlns="http://www.w3.org/2000/svg">
<g clip-path="url(#clip0_1082_2464)">
<path d="M8.75348 18.1952C7.72056 14.5706 3.94416 10.8084 0.305928 9.77938C-0.101976 9.64829 -0.101976 9.3599 0.305928 9.22226C3.95074 8.18666 7.72056 4.431 8.76005 0.799863C8.8719 0.400046 9.14164 0.400046 9.25349 0.799863C10.2864 4.431 14.0628 8.18666 17.6945 9.22226C18.1024 9.35335 18.1024 9.64829 17.6945 9.77938C14.0562 10.8084 10.2798 14.5706 9.24691 18.1952C9.13506 18.6016 8.86532 18.6016 8.75348 18.1952Z" fill="url(#paint0_linear_1082_2464)"/>
</g>
<defs>
<linearGradient id="paint0_linear_1082_2464" x1="4" y1="4.5" x2="13.4998" y2="14.5002" gradientUnits="userSpaceOnUse">
<stop stop-color="#A6FF00"/>
<stop offset="1" stop-color="#E0FFE6"/>
</linearGradient>
<clipPath id="clip0_1082_2464">
<rect width="18" height="18" fill="white" transform="translate(0 0.5)"/>
</clipPath>
</defs>
</svg>
