<svg width="36" height="35" viewBox="0 0 36 35" fill="none" xmlns="http://www.w3.org/2000/svg">
<path d="M17.9998 2.91797C9.94984 2.91797 3.4165 9.4513 3.4165 17.5013C3.4165 25.5513 9.94984 32.0846 17.9998 32.0846C26.0498 32.0846 32.5832 25.5513 32.5832 17.5013C32.5832 9.4513 26.0498 2.91797 17.9998 2.91797ZM24.7665 12.8346C24.5478 15.1388 23.5998 20.7388 23.1186 23.3201C22.9144 24.4138 22.5061 24.7784 22.1269 24.8221C21.2811 24.8951 20.6394 24.268 19.8228 23.7284C18.5394 22.8826 17.8103 22.3576 16.5707 21.5409C15.1269 20.593 16.0603 20.068 16.8915 19.2221C17.1103 19.0034 20.8436 15.6055 20.9165 15.2992C20.9266 15.2528 20.9253 15.2047 20.9126 15.1589C20.8999 15.1132 20.8762 15.0712 20.8436 15.0367C20.7561 14.9638 20.6394 14.993 20.5373 15.0076C20.4061 15.0367 18.3644 16.393 14.3832 19.0763C13.7998 19.4701 13.2748 19.6742 12.8082 19.6596C12.2832 19.6451 11.2915 19.368 10.5478 19.1201C9.629 18.8284 8.91442 18.668 8.97275 18.1576C9.00192 17.8951 9.3665 17.6326 10.0519 17.3555C14.3103 15.5034 17.1394 14.2784 18.554 13.6951C22.6082 12.0034 23.4394 11.7117 23.9936 11.7117C24.1103 11.7117 24.3873 11.7409 24.5623 11.8867C24.7082 12.0034 24.7519 12.1638 24.7665 12.2805C24.7519 12.368 24.7811 12.6305 24.7665 12.8346Z" fill="white"/>
</svg>
