<svg width="159" height="36" viewBox="0 0 159 36" fill="none" xmlns="http://www.w3.org/2000/svg">
<mask id="mask0_391_1268" style="mask-type:luminance" maskUnits="userSpaceOnUse" x="0" y="0" width="33" height="36">
<path d="M32.206 0.5H0V35.5H32.206V0.5Z" fill="white"/>
</mask>
<g mask="url(#mask0_391_1268)">
<path d="M18.1052 0.5V4.32989H18.0007C17.9398 4.32989 17.8789 4.34732 17.8658 4.37344C17.8527 4.3952 17.7526 4.41696 17.6482 4.41696C17.5437 4.41696 17.4436 4.43436 17.4306 4.46047C17.4175 4.48223 17.3261 4.50399 17.2347 4.50399C17.1433 4.50399 17.0563 4.52139 17.0432 4.54315C17.0302 4.56491 16.9432 4.59103 16.8561 4.6041C16.6341 4.63457 16.447 4.67809 16.3425 4.72161C16.2947 4.73901 16.1685 4.77817 16.0596 4.80864C15.9509 4.83476 15.829 4.87827 15.7898 4.90003C15.7463 4.92179 15.6723 4.93922 15.6288 4.93922C15.5809 4.93922 15.5331 4.95662 15.52 4.97402C15.5069 4.99143 15.3981 5.03497 15.2806 5.06977C15.1587 5.10025 15.0587 5.14376 15.0587 5.16552C15.0587 5.18292 15.0195 5.20033 14.976 5.20033C14.9281 5.20033 14.8759 5.21776 14.8628 5.24387C14.8498 5.26563 14.7888 5.28739 14.7279 5.28739C14.6713 5.28739 14.6234 5.30479 14.6234 5.33091C14.6234 5.35266 14.5973 5.37442 14.5669 5.37442C14.4842 5.37442 14.2187 5.50065 13.3526 5.94892C13.2003 6.02724 13.0697 6.10123 13.0567 6.1143C13.0436 6.12735 12.9827 6.16218 12.9174 6.19698C12.8478 6.23181 12.7955 6.27533 12.7955 6.29709C12.7955 6.31449 12.7651 6.33189 12.7259 6.33189C12.6867 6.33189 12.6214 6.36672 12.5823 6.41024C12.5431 6.4494 12.4604 6.51034 12.3951 6.54515C12.3255 6.57998 12.2733 6.6235 12.2733 6.64525C12.2733 6.66266 12.2472 6.68008 12.2167 6.68008C12.1862 6.68008 12.1209 6.71489 12.0731 6.75841C12.0295 6.80195 11.9207 6.88463 11.838 6.94122C11.7554 7.00214 11.6465 7.08917 11.5943 7.13705C11.5465 7.18492 11.4376 7.27198 11.3593 7.3329C11.1069 7.52004 10.1842 8.46447 10.1842 8.5341C10.1842 8.54714 10.1276 8.61245 10.0624 8.67337C9.99709 8.73864 9.89263 8.86051 9.83604 8.94321C9.77948 9.02589 9.71853 9.10424 9.70549 9.11728C9.66197 9.15211 9.40084 9.5438 9.40084 9.57427C9.40084 9.58731 9.36165 9.63955 9.3138 9.69178C9.26593 9.74401 9.22674 9.81364 9.22674 9.84409C9.22674 9.87456 9.20934 9.90068 9.18322 9.90068C9.16146 9.90068 9.1397 9.93984 9.1397 9.98336C9.1397 10.0312 9.1223 10.0748 9.10487 10.0835C9.057 10.1009 8.70447 10.8059 8.70447 10.8843C8.70447 10.9191 8.68707 10.9452 8.66096 10.9452C8.6392 10.9452 8.61744 10.9844 8.61744 11.0322C8.61744 11.0801 8.60004 11.1193 8.57392 11.1193C8.55216 11.1193 8.5304 11.1585 8.5304 11.2063C8.5304 11.2934 8.513 11.3325 8.40854 11.5414C8.37806 11.598 8.35631 11.6807 8.35631 11.7286C8.35631 11.7765 8.3389 11.8156 8.31279 11.8156C8.29103 11.8156 8.26927 11.8722 8.26927 11.9462C8.26927 12.0158 8.25187 12.0768 8.22575 12.0768C8.20399 12.0768 8.18224 12.142 8.18224 12.2247C8.18224 12.3074 8.16481 12.3901 8.13869 12.4032C8.11693 12.4162 8.09517 12.4859 8.09517 12.5555C8.09517 12.6251 8.07777 12.6948 8.05166 12.7078C8.0299 12.7209 8.00814 12.8079 8.00814 12.8993C8.00814 12.9907 7.99074 13.0778 7.96898 13.0995C7.94722 13.1256 7.91675 13.2388 7.90367 13.3606C7.89063 13.4782 7.8558 13.7654 7.82971 13.9917C7.73396 14.7185 7.77748 17.0426 7.88192 17.1079C7.90367 17.1209 7.9211 17.2341 7.9211 17.3646C7.9211 17.4952 7.94286 17.6127 7.96462 17.6258C7.99074 17.6388 8.00814 17.7476 8.00814 17.8651C8.00814 17.9827 8.0299 18.0914 8.05166 18.1045C8.07777 18.1176 8.09517 18.1959 8.09517 18.2786C8.09517 18.3613 8.11693 18.4396 8.13869 18.4527C8.16481 18.4657 8.18224 18.5354 8.18224 18.605C8.18224 18.6747 8.20399 18.7443 8.22575 18.7573C8.25187 18.7704 8.26927 18.84 8.26927 18.9097C8.26927 18.9793 8.29103 19.0489 8.31279 19.062C8.3389 19.0751 8.35631 19.136 8.35631 19.1926C8.35631 19.2491 8.37806 19.3101 8.39982 19.3231C8.42594 19.3362 8.44334 19.3971 8.44334 19.4537C8.44334 19.5103 8.46513 19.5712 8.48689 19.5842C8.513 19.5973 8.5304 19.6582 8.5304 19.7192C8.5304 19.7757 8.5478 19.8236 8.56521 19.8236C8.58697 19.8236 8.63051 19.9237 8.66096 20.0412C8.69143 20.1631 8.73495 20.2588 8.75671 20.2588C8.77411 20.2588 8.79154 20.298 8.79154 20.3459C8.79154 20.3938 8.8133 20.4329 8.83505 20.4329C8.86117 20.4329 8.87857 20.459 8.87857 20.4852C8.87857 20.5548 9.23545 21.2772 9.27897 21.2946C9.30073 21.3034 9.3138 21.3469 9.3138 21.3947C9.3138 21.4383 9.3312 21.4775 9.35296 21.4775C9.37472 21.4775 9.40084 21.5123 9.41388 21.5558C9.44435 21.6428 9.57491 21.8648 9.6489 21.9431C9.67501 21.9736 9.7142 22.0389 9.72725 22.0868C9.74029 22.1346 9.77512 22.1738 9.79688 22.1738C9.81864 22.1738 9.83604 22.1999 9.83604 22.2304C9.83604 22.2608 9.87523 22.3305 9.9231 22.3827C9.97098 22.4349 10.0101 22.4915 10.0101 22.5133C10.0101 22.535 10.0667 22.6133 10.1407 22.6873C10.2887 22.844 10.2974 22.8701 10.206 22.8701C10.132 22.8701 8.79589 21.5514 8.60004 21.2903C8.53476 21.2032 8.43465 21.0814 8.37371 21.0205C8.31715 20.9639 8.26927 20.8986 8.26927 20.8768C8.26927 20.8551 8.20832 20.7767 8.13869 20.7027C8.06473 20.6244 8.00814 20.5504 8.00814 20.533C8.00814 20.5113 7.94722 20.4286 7.87756 20.3459C7.80792 20.2632 7.74701 20.1761 7.74701 20.1587C7.74701 20.1413 7.70784 20.0848 7.65997 20.0325C7.6121 19.9803 7.57291 19.9107 7.57291 19.8802C7.57291 19.8497 7.55551 19.8236 7.52939 19.8236C7.50763 19.8236 7.48587 19.7844 7.48587 19.7366C7.48587 19.6887 7.46847 19.6495 7.44671 19.6495C7.42495 19.6495 7.38577 19.5886 7.35532 19.519C7.32485 19.445 7.28569 19.3884 7.26393 19.3884C7.24214 19.3884 7.22474 19.3492 7.22474 19.3014C7.22474 19.2535 7.20734 19.2143 7.18122 19.2143C7.15946 19.2143 7.13771 19.1751 7.13771 19.1273C7.13771 19.0794 7.1203 19.0402 7.09419 19.0402C7.07243 19.0402 7.05067 19.0011 7.05067 18.9532C7.05067 18.9053 7.03324 18.8661 7.00713 18.8661C6.98537 18.8661 6.96361 18.827 6.96361 18.7791C6.96361 18.7312 6.94621 18.6921 6.92009 18.6921C6.89833 18.6921 6.87657 18.6529 6.87657 18.605C6.87657 18.5571 6.85917 18.518 6.83306 18.518C6.8113 18.518 6.78954 18.4788 6.78954 18.4309C6.78954 18.3831 6.77211 18.3439 6.74602 18.3439C6.72423 18.3439 6.70248 18.3047 6.70248 18.2612C6.70248 18.2133 6.68507 18.1611 6.65896 18.148C6.6372 18.135 6.61544 18.074 6.61544 18.0131C6.61544 17.9565 6.59804 17.9087 6.57192 17.9087C6.55016 17.9087 6.52841 17.8608 6.52841 17.8042C6.52841 17.7433 6.51098 17.6824 6.48489 17.6693C6.46313 17.6562 6.44134 17.604 6.44134 17.5561C6.44134 17.5126 6.42394 17.4735 6.39783 17.4735C6.37607 17.4735 6.35431 17.4169 6.35431 17.3472C6.35431 17.2732 6.33691 17.2036 6.31079 17.1906C6.28903 17.1775 6.26727 17.1166 6.26727 17.06C6.26727 17.0034 6.24987 16.9425 6.22376 16.9294C6.202 16.9164 6.18024 16.8467 6.18024 16.7771C6.18024 16.7075 6.16281 16.6378 6.13669 16.6248C6.11493 16.6117 6.09318 16.5334 6.09318 16.4507C6.09318 16.368 6.07577 16.2897 6.04966 16.2766C6.0279 16.2635 6.00614 16.1722 6.00614 16.0808C6.00614 15.9894 5.98874 15.898 5.96262 15.8849C5.94086 15.8719 5.9191 15.7761 5.9191 15.6717C5.9191 15.5672 5.90168 15.4715 5.87992 15.4497C5.8364 15.4018 5.82336 15.2582 5.74065 14.144C5.66233 13.043 5.68409 12.3771 5.83204 11.4022C5.85816 11.2324 5.88863 11.0105 5.90168 10.9017C5.91475 10.7929 5.94522 10.6884 5.96698 10.6623C5.98874 10.6406 6.00614 10.5579 6.00614 10.4839C6.00614 10.4055 6.0279 10.3272 6.04966 10.3141C6.07142 10.3011 6.09318 10.2227 6.09318 10.1401C6.09318 10.0573 6.11493 9.97903 6.13669 9.96596C6.16281 9.95291 6.18024 9.87021 6.18024 9.78753C6.18024 9.70482 6.202 9.63955 6.22376 9.63955C6.24987 9.63955 6.26727 9.57863 6.26727 9.50899C6.26727 9.435 6.28903 9.37841 6.31079 9.37841C6.33691 9.37841 6.35431 9.3175 6.35431 9.24786C6.35431 9.17387 6.37607 9.11728 6.39783 9.11728C6.42394 9.11728 6.44134 9.07812 6.44134 9.03025C6.44134 8.98237 6.46313 8.90403 6.48489 8.85615C6.51098 8.80828 6.55016 8.72995 6.57192 8.68208C6.59804 8.63421 6.61544 8.55586 6.61544 8.50798C6.61544 8.46011 6.6372 8.42095 6.65896 8.42095C6.68507 8.42095 6.70248 8.38176 6.70248 8.33389C6.70248 8.28604 6.72423 8.24685 6.74602 8.24685C6.77211 8.24685 6.78954 8.21638 6.78954 8.18157C6.78954 8.14674 6.80694 8.08147 6.8287 8.03795C6.85046 7.99879 6.94621 7.80729 7.0376 7.61579C7.2465 7.19799 7.41188 6.88463 7.44236 6.85415C7.48587 6.81064 7.62078 6.57126 7.6469 6.49294C7.65997 6.45376 7.68609 6.41895 7.70784 6.41895C7.7296 6.41895 7.74701 6.39284 7.74701 6.36236C7.74701 6.33189 7.78617 6.26226 7.83404 6.21005C7.88192 6.15782 7.9211 6.10123 7.9211 6.08383C7.9211 6.06643 7.98202 5.97937 8.05166 5.89669C8.12129 5.81398 8.18224 5.73131 8.18224 5.70955C8.18224 5.69214 8.2388 5.61815 8.31279 5.53981C8.38678 5.46582 8.44334 5.3875 8.44334 5.36571C8.44334 5.33962 8.49993 5.26999 8.56521 5.20904C8.63051 5.14376 8.73495 5.0219 8.79154 4.93922C8.9308 4.74337 10.0711 3.60309 10.2713 3.45946C10.3539 3.39854 10.4976 3.27668 10.5933 3.18964C10.6847 3.09824 10.7848 3.02426 10.8109 3.02426C10.8371 3.02426 10.8893 2.98509 10.9241 2.93721C10.9589 2.88934 11.0111 2.85017 11.0372 2.85017C11.0634 2.85017 11.1461 2.78924 11.22 2.71961C11.2984 2.64562 11.3767 2.58904 11.3941 2.58904C11.4159 2.58904 11.4681 2.55422 11.516 2.5107C11.6248 2.41495 11.838 2.28439 11.9381 2.25392C11.9773 2.24087 12.0121 2.21475 12.0121 2.19299C12.0121 2.17123 12.0513 2.15382 12.0992 2.15382C12.147 2.15382 12.1862 2.14077 12.1862 2.11901C12.1862 2.1016 12.2297 2.06678 12.2863 2.04067C12.3385 2.01455 12.6214 1.87093 12.913 1.72296C13.2003 1.57934 13.4701 1.45748 13.5093 1.45748C13.5485 1.45748 13.5789 1.44007 13.5789 1.42266C13.5789 1.4009 13.679 1.35738 13.7965 1.32691C13.9184 1.29645 14.0141 1.25292 14.0141 1.23116C14.0141 1.21376 14.0751 1.19635 14.1447 1.19635C14.2187 1.19635 14.2753 1.17459 14.2753 1.15283C14.2753 1.12671 14.3362 1.1093 14.4058 1.1093C14.4798 1.1093 14.5364 1.08754 14.5364 1.06578C14.5364 1.03967 14.593 1.02226 14.6626 1.02226C14.7366 1.02226 14.8062 1.0005 14.8193 0.978739C14.8323 0.952626 14.902 0.935216 14.9716 0.935216C15.0412 0.935216 15.1065 0.917809 15.1196 0.896047C15.1327 0.874286 15.2066 0.848173 15.285 0.835117C15.3633 0.817708 15.5374 0.787243 15.668 0.76113C16.1075 0.674087 16.4252 0.626213 16.8082 0.595748C17.0171 0.578339 17.1999 0.547874 17.2173 0.530465C17.2347 0.513057 17.4436 0.5 17.6786 0.5H18.1052Z" fill="white"/>
<path d="M17.3258 25.5819C17.2431 25.621 17.143 25.6559 17.0995 25.6559C17.056 25.6559 17.0081 25.6733 16.995 25.6994C16.982 25.7211 16.921 25.7429 16.8645 25.7429C16.8079 25.7429 16.747 25.7603 16.7339 25.7864C16.7208 25.8082 16.6512 25.8299 16.5816 25.8299C16.5119 25.8299 16.4423 25.8517 16.4293 25.8735C16.4162 25.8996 16.3378 25.917 16.2552 25.917C16.1725 25.917 16.0985 25.9344 16.0854 25.9562C16.0724 25.9779 15.9853 26.004 15.8983 26.0171C15.8069 26.0302 15.6241 26.065 15.4935 26.0911C14.1095 26.3653 12.4209 26.4001 11.0543 26.1781C10.8976 26.152 10.68 26.1215 10.5669 26.1085C10.4494 26.0954 10.358 26.065 10.358 26.0432C10.358 26.0214 10.2796 26.004 10.1839 26.004C10.0881 26.004 10.0098 25.9823 10.0098 25.9605C10.0098 25.9344 9.94452 25.917 9.86181 25.917C9.77913 25.917 9.69643 25.8996 9.68338 25.8735C9.67031 25.8517 9.60068 25.8299 9.52671 25.8299C9.45708 25.8299 9.40049 25.8082 9.40049 25.7864C9.40049 25.7603 9.3439 25.7429 9.26991 25.7429C9.20028 25.7429 9.13936 25.7211 9.13936 25.6994C9.13936 25.6733 9.08277 25.6559 9.01313 25.6559C8.93917 25.6559 8.86951 25.6341 8.85647 25.6123C8.84342 25.5862 8.78248 25.5688 8.72156 25.5688C8.66497 25.5688 8.61709 25.5514 8.61709 25.534C8.61709 25.5122 8.52134 25.4687 8.39948 25.4383C8.28197 25.4078 8.18189 25.3643 8.18189 25.3425C8.18189 25.3251 8.1427 25.3077 8.09483 25.3077C8.04695 25.3077 8.00779 25.2859 8.00779 25.2642C8.00779 25.238 7.98168 25.2206 7.95556 25.2206C7.899 25.2206 7.00681 24.7898 6.96326 24.7419C6.9241 24.7027 6.68037 24.5635 6.60641 24.5373C6.56286 24.5243 6.52806 24.4982 6.52806 24.4764C6.52806 24.4547 6.4889 24.4372 6.44102 24.4372C6.39315 24.4372 6.35396 24.4198 6.35396 24.4024C6.35396 24.3807 6.30173 24.3372 6.23645 24.3023C6.16682 24.2675 6.08414 24.2066 6.04495 24.1674C6.00579 24.1239 5.95356 24.0891 5.9318 24.0891C5.91005 24.0891 5.85346 24.0543 5.80558 24.0107C5.76206 23.9672 5.65327 23.8889 5.57056 23.8279C5.48789 23.7714 5.40954 23.7104 5.39649 23.6974C5.38342 23.6843 5.32686 23.6364 5.27027 23.5973C4.89163 23.3405 3.30746 21.7563 3.30746 21.6388C3.30746 21.617 3.27263 21.5648 3.22911 21.5257C3.1856 21.4865 3.10289 21.3864 3.04633 21.3037C2.98974 21.221 2.91575 21.1253 2.88527 21.0948C2.85483 21.0643 2.79824 20.9816 2.75472 20.912C2.71555 20.838 2.66333 20.7814 2.64592 20.7814C2.62851 20.7814 2.6111 20.7553 2.6111 20.7249C2.6111 20.6944 2.57628 20.6291 2.53711 20.5812C2.49359 20.5334 2.43701 20.455 2.4109 20.4071C2.38479 20.3636 2.33691 20.2766 2.3021 20.2157C2.26728 20.1547 2.23246 20.0982 2.2194 20.0851C2.17588 20.0416 2.04097 19.8022 2.01485 19.7238C2.0018 19.6847 1.97568 19.6499 1.95392 19.6499C1.93216 19.6499 1.91475 19.6107 1.91475 19.5628C1.91475 19.5149 1.89734 19.4758 1.87123 19.4758C1.84947 19.4758 1.82771 19.4366 1.82771 19.3887C1.82771 19.3409 1.8103 19.3017 1.78419 19.3017C1.76243 19.3017 1.74067 19.2625 1.74067 19.2147C1.74067 19.1668 1.72326 19.1276 1.69714 19.1276C1.67538 19.1276 1.65362 19.0884 1.65362 19.0406C1.65362 18.9927 1.63621 18.9535 1.6101 18.9535C1.58834 18.9535 1.56658 18.9144 1.56658 18.8665C1.56658 18.8186 1.54917 18.7794 1.52306 18.7794C1.5013 18.7794 1.47954 18.7316 1.47954 18.675C1.47954 18.6141 1.46213 18.5531 1.43601 18.5401C1.41425 18.527 1.39249 18.4748 1.39249 18.4269C1.39249 18.3834 1.37508 18.3442 1.34897 18.3442C1.32721 18.3442 1.30545 18.3051 1.30545 18.2615C1.30545 18.2137 1.28804 18.1614 1.26193 18.1484C1.24017 18.1353 1.21841 18.0744 1.21841 18.0135C1.21841 17.9569 1.201 17.909 1.17489 17.909C1.15312 17.909 1.13136 17.8481 1.13136 17.7784C1.13136 17.7044 1.11395 17.6479 1.08784 17.6479C1.06608 17.6479 1.04432 17.6 1.04432 17.5434C1.04432 17.4825 1.02691 17.4216 1.0008 17.4085C0.979037 17.3954 0.957275 17.3258 0.957275 17.2518C0.957275 17.1822 0.939866 17.1256 0.918107 17.1256C0.896345 17.1256 0.870232 17.0603 0.857174 16.982C0.818006 16.747 0.778837 16.586 0.739666 16.4945C0.717907 16.4467 0.691794 16.3379 0.674384 16.2552C0.661329 16.1725 0.630864 16.0027 0.604751 15.8852C0.395844 14.8625 0.321859 13.3653 0.426309 12.36C0.456774 12.0945 0.491594 11.7637 0.504649 11.6201C0.517707 11.4765 0.548172 11.3416 0.569931 11.3155C0.591693 11.2937 0.609102 11.1806 0.609102 11.0674C0.609102 10.9542 0.630864 10.8585 0.652623 10.8585C0.678736 10.8585 0.696146 10.7802 0.696146 10.6844C0.696146 10.5887 0.717907 10.5103 0.739666 10.5103C0.765779 10.5103 0.783189 10.445 0.783189 10.3624C0.783189 10.2796 0.80495 10.197 0.826709 10.1839C0.852822 10.1709 0.870232 10.1012 0.870232 10.0316C0.870232 9.96195 0.891994 9.89232 0.913752 9.87925C0.939866 9.8662 0.957275 9.80526 0.957275 9.74869C0.957275 9.69211 0.979037 9.63119 1.0008 9.61811C1.02691 9.60507 1.04432 9.54412 1.04432 9.48321C1.04432 9.42662 1.06608 9.37874 1.08784 9.37874C1.11395 9.37874 1.13136 9.33089 1.13136 9.2743C1.13136 9.21339 1.15312 9.15244 1.17489 9.13939C1.201 9.12632 1.21841 9.07409 1.21841 9.02622C1.21841 8.9827 1.24017 8.94354 1.26193 8.94354C1.28804 8.94354 1.30545 8.91307 1.30545 8.87826C1.30545 8.83907 1.34462 8.72592 1.39249 8.63017C1.44037 8.5301 1.47954 8.42127 1.47954 8.3908C1.47954 8.36036 1.5013 8.33424 1.52306 8.33424C1.54917 8.33424 1.56658 8.29505 1.56658 8.2472C1.56658 8.19933 1.58834 8.16014 1.6101 8.16014C1.63621 8.16014 1.65362 8.12098 1.65362 8.07311C1.65362 8.02523 1.67538 7.98607 1.69714 7.98607C1.72326 7.98607 1.74067 7.94688 1.74067 7.89901C1.74067 7.85113 1.75372 7.81197 1.77548 7.81197C1.79289 7.81197 1.83206 7.75106 1.86253 7.68142C1.93216 7.52908 1.91911 7.53344 2.06708 7.60307C2.12801 7.62919 2.17588 7.66835 2.17588 7.69011C2.17588 7.70751 2.21505 7.72494 2.26293 7.72494C2.3108 7.72494 2.34997 7.74234 2.34997 7.7641C2.34997 7.78586 2.38479 7.81197 2.42831 7.82502C2.5023 7.85113 2.74168 7.98607 2.7852 8.02959C2.80695 8.05135 3.1116 8.21673 3.29439 8.30812C3.35098 8.33424 3.3945 8.36904 3.3945 8.38647C3.3945 8.40823 3.42497 8.42127 3.45977 8.42127C3.49893 8.42127 3.56857 8.46043 3.6208 8.50831C3.67303 8.55618 3.74266 8.59537 3.77314 8.59537C3.80358 8.59537 3.8297 8.61277 3.8297 8.63889C3.8297 8.66065 3.86889 8.68241 3.91676 8.68241C3.96464 8.68241 4.0038 8.69981 4.0038 8.72157C4.0038 8.74333 4.03863 8.76944 4.08214 8.78251C4.15613 8.80863 4.39548 8.94354 4.43903 8.98706C4.48254 9.03057 4.72192 9.16551 4.80024 9.1916C4.83943 9.20467 4.87423 9.23079 4.87423 9.25255C4.87423 9.2743 4.91339 9.29171 4.96126 9.29171C5.00914 9.29171 5.04833 9.30911 5.04833 9.33522C5.04833 9.35698 5.08749 9.37874 5.13536 9.37874C5.205 9.37874 5.2224 9.40921 5.2224 9.52237C5.2224 9.60071 5.20499 9.68342 5.18759 9.70518C5.16583 9.73129 5.10489 9.89668 5.05266 10.0751C4.99609 10.2535 4.93515 10.4363 4.91339 10.4755C4.89163 10.519 4.87423 10.593 4.87423 10.6409C4.87423 10.6888 4.85683 10.7627 4.83507 10.8063C4.76977 10.9368 4.70013 11.1893 4.70013 11.2981C4.70013 11.359 4.68273 11.4243 4.66097 11.446C4.63921 11.4722 4.6131 11.5679 4.60005 11.6637C4.58262 11.7594 4.55218 11.9465 4.52606 12.0771C4.26057 13.4002 4.22141 15.1758 4.43467 16.451C4.46078 16.5946 4.49123 16.7905 4.5043 16.8862C4.5217 16.982 4.54782 17.0995 4.56958 17.1474C4.59134 17.1953 4.61745 17.304 4.63485 17.3868C4.64793 17.4694 4.66969 17.6043 4.68709 17.6783C4.70013 17.7567 4.72625 17.822 4.74801 17.822C4.76976 17.822 4.78719 17.8655 4.78719 17.9177C4.78719 18.0265 4.88294 18.3225 4.93082 18.3703C4.94822 18.3877 4.96126 18.4487 4.96126 18.5052C4.96126 18.5575 4.98302 18.6054 5.00478 18.6054C5.0309 18.6054 5.04833 18.6445 5.04833 18.688C5.04833 18.7359 5.07009 18.7881 5.09184 18.8012C5.11796 18.8143 5.13536 18.8752 5.13536 18.9361C5.13536 18.9927 5.15712 19.0406 5.17888 19.0406C5.20499 19.0406 5.2224 19.0797 5.2224 19.1276C5.2224 19.1755 5.24416 19.2147 5.26591 19.2147C5.29203 19.2147 5.30946 19.2538 5.30946 19.3017C5.30946 19.3496 5.33122 19.3887 5.35298 19.3887C5.37909 19.3887 5.39649 19.4279 5.39649 19.4758C5.39649 19.5237 5.41825 19.5628 5.44001 19.5628C5.46613 19.5628 5.48353 19.602 5.48353 19.6499C5.48353 19.6978 5.50529 19.7369 5.52705 19.7369C5.55316 19.7369 5.57056 19.7761 5.57056 19.824C5.57056 19.8718 5.59235 19.911 5.61411 19.911C5.64022 19.911 5.65763 19.9415 5.65763 19.9763C5.65763 20.0154 5.69679 20.0851 5.74466 20.1373C5.79254 20.1895 5.8317 20.2592 5.8317 20.2896C5.8317 20.3201 5.85346 20.3462 5.87524 20.3462C5.90133 20.3462 5.91876 20.3723 5.91876 20.4028C5.91876 20.4333 5.95792 20.5029 6.00579 20.5551C6.05367 20.6073 6.09283 20.6639 6.09283 20.6813C6.09283 20.6987 6.15378 20.7858 6.22341 20.8685C6.29304 20.9512 6.35396 21.0382 6.35396 21.0556C6.35396 21.0774 6.40619 21.147 6.47583 21.2079C6.5411 21.2732 6.64993 21.3994 6.71956 21.4908C6.88927 21.7172 7.81629 22.6485 8.00779 22.7834C8.0905 22.84 8.19058 22.9227 8.22976 22.9662C8.26893 23.0097 8.3168 23.0445 8.34292 23.0445C8.36468 23.0445 8.46911 23.1229 8.57358 23.2186C8.67804 23.3144 8.78248 23.3927 8.80424 23.3927C8.82166 23.3927 8.87823 23.4319 8.93046 23.4798C8.98269 23.5276 9.05232 23.5668 9.08277 23.5668C9.11324 23.5668 9.13936 23.5842 9.13936 23.6016C9.13936 23.619 9.23511 23.6843 9.35697 23.7453C9.47448 23.8018 9.57459 23.8628 9.57459 23.8802C9.57459 23.9019 9.61375 23.915 9.66162 23.915C9.7095 23.915 9.74866 23.9324 9.74866 23.9498C9.74866 23.9716 9.99675 24.1108 10.3057 24.2588C10.6104 24.4068 10.8933 24.5504 10.9325 24.5722C10.976 24.5939 11.0413 24.6113 11.0761 24.6113C11.1109 24.6113 11.1414 24.6287 11.1414 24.6549C11.1414 24.6766 11.1805 24.6984 11.2284 24.6984C11.2763 24.6984 11.359 24.7201 11.4155 24.7506C11.6244 24.8551 11.6636 24.8725 11.7463 24.8725C11.7942 24.8725 11.8464 24.8942 11.8595 24.916C11.8725 24.9377 11.9248 24.9595 11.9726 24.9595C12.0161 24.9595 12.0901 24.9769 12.1337 24.9987C12.1728 25.0205 12.2947 25.0596 12.4035 25.0901C12.5123 25.1205 12.6342 25.1597 12.6733 25.1815C12.7168 25.2032 12.8213 25.2206 12.904 25.2206C12.9867 25.2206 13.0563 25.238 13.0563 25.2598C13.0563 25.2816 13.139 25.3077 13.2435 25.3251C13.3436 25.3381 13.5438 25.3686 13.6874 25.3947C14.2619 25.4992 14.6927 25.534 15.7982 25.5514C16.6077 25.5688 16.9994 25.5601 17.1082 25.5253C17.1909 25.4948 17.3084 25.4818 17.3693 25.4905C17.4694 25.5035 17.4694 25.5079 17.3258 25.5819Z" fill="white"/>
<path d="M23.3102 20.768C23.2928 20.8594 23.2711 21.0073 23.258 21.0987C23.2406 21.1858 23.2145 21.2728 23.1927 21.2859C23.171 21.2989 23.1535 21.386 23.1535 21.4774C23.1535 21.5688 23.1361 21.6601 23.11 21.6732C23.0883 21.6863 23.0665 21.7559 23.0665 21.8255C23.0665 21.8952 23.0491 21.9648 23.023 21.9779C23.0012 21.9909 22.9795 22.0605 22.9795 22.1302C22.9795 22.1998 22.962 22.2695 22.9359 22.2825C22.9142 22.2956 22.8924 22.3565 22.8924 22.4131C22.8924 22.4697 22.875 22.5306 22.8489 22.5437C22.8271 22.5567 22.8054 22.6176 22.8054 22.6742C22.8054 22.7308 22.788 22.7917 22.7619 22.8048C22.7401 22.8178 22.7183 22.8788 22.7183 22.9397C22.7183 22.9963 22.7009 23.0442 22.6748 23.0442C22.653 23.0442 22.6313 23.0833 22.6313 23.1268C22.6313 23.1747 22.6139 23.2269 22.5878 23.24C22.566 23.2531 22.5442 23.314 22.5442 23.3749C22.5442 23.4315 22.5268 23.4794 22.5007 23.4794C22.479 23.4794 22.4572 23.5055 22.4572 23.5316C22.4572 23.6056 21.9262 24.6719 21.8827 24.6893C21.8653 24.698 21.8479 24.7415 21.8479 24.7894C21.8479 24.8329 21.8305 24.8721 21.8044 24.8721C21.7826 24.8721 21.7608 24.8982 21.7608 24.9286C21.7608 24.9591 21.7217 25.0287 21.6738 25.081C21.6259 25.1332 21.5868 25.1941 21.5868 25.2202C21.5868 25.2463 21.5476 25.3073 21.4997 25.3595C21.4518 25.4117 21.4127 25.4814 21.4127 25.5118C21.4127 25.5423 21.3953 25.5684 21.3779 25.5684C21.3604 25.5684 21.3126 25.6206 21.2734 25.6859C21.2343 25.7556 21.1515 25.8644 21.0906 25.9383C21.0297 26.008 20.9775 26.0863 20.9775 26.1081C20.9775 26.1298 20.9426 26.1777 20.8991 26.2169C20.8556 26.256 20.7729 26.3518 20.7207 26.4345C20.6206 26.5738 19.8024 27.4485 19.5935 27.6313C19.5369 27.6836 19.3628 27.8446 19.2018 27.9925C19.0451 28.145 18.8971 28.2667 18.8797 28.2667C18.858 28.2667 18.784 28.3233 18.7056 28.3974C18.6316 28.4669 18.5533 28.5279 18.5272 28.5279C18.5054 28.5279 18.4532 28.5627 18.414 28.6063C18.3749 28.6455 18.2922 28.7062 18.2269 28.7411C18.1573 28.7759 18.105 28.8195 18.105 28.8413C18.105 28.8587 18.0789 28.8762 18.0485 28.8762C18.018 28.8762 17.9527 28.9107 17.9048 28.95C17.8613 28.9935 17.7699 29.0545 17.7046 29.0894C17.635 29.1242 17.5828 29.1675 17.5828 29.1893C17.5828 29.2068 17.5436 29.2242 17.4957 29.2242C17.4478 29.2242 17.4087 29.2416 17.4087 29.2634C17.4087 29.2852 17.3739 29.3113 17.3347 29.3244C17.2303 29.3593 16.9996 29.4984 16.9822 29.5376C16.9735 29.5594 16.9299 29.5725 16.8821 29.5725C16.8385 29.5725 16.7994 29.5899 16.7994 29.6158C16.7994 29.6376 16.7602 29.6594 16.7123 29.6594C16.6645 29.6594 16.6253 29.6768 16.6253 29.7029C16.6253 29.7247 16.5861 29.7465 16.5382 29.7465C16.4904 29.7465 16.4512 29.7639 16.4512 29.7901C16.4512 29.8119 16.4251 29.8337 16.3946 29.8337C16.3642 29.8337 16.2554 29.8726 16.1553 29.9205C16.0595 29.9685 15.9464 30.0077 15.9072 30.0077C15.8724 30.0077 15.8419 30.0251 15.8419 30.0512C15.8419 30.073 15.8114 30.0945 15.7766 30.0945C15.7418 30.0945 15.6765 30.112 15.633 30.1338C15.5938 30.1555 15.5024 30.1948 15.4284 30.2253C15.3588 30.2558 15.2631 30.295 15.2239 30.3165C15.1804 30.3383 15.1151 30.3557 15.0803 30.3557C15.0454 30.3557 14.9802 30.3731 14.9367 30.3949C14.8975 30.4167 14.7756 30.4559 14.6668 30.4864C14.558 30.5169 14.4361 30.5559 14.397 30.5776C14.3535 30.5994 14.2621 30.6169 14.1924 30.6169C14.1185 30.6169 14.0532 30.6343 14.0401 30.6561C14.0271 30.6779 13.94 30.704 13.853 30.7214C13.7616 30.7345 13.6092 30.7563 13.5135 30.7694C13.4177 30.7868 13.3002 30.8127 13.2523 30.8344C13.0043 30.9434 11.9641 31.0218 10.7934 31.0218C9.69663 31.0174 9.22226 30.9869 8.63905 30.878C8.49543 30.8519 8.28217 30.817 8.16033 30.8083C8.04282 30.7952 7.92531 30.765 7.8992 30.7432C7.87744 30.7214 7.79473 30.704 7.71639 30.704C7.63807 30.704 7.57279 30.6822 7.57279 30.6604C7.57279 30.6343 7.49444 30.6169 7.39869 30.6169C7.30294 30.6169 7.2246 30.5951 7.2246 30.5733C7.2246 30.5474 7.16803 30.53 7.0984 30.53C7.02441 30.53 6.95478 30.5082 6.9417 30.4864C6.92866 30.4603 6.86771 30.4428 6.81115 30.4428C6.75456 30.4428 6.69364 30.4211 6.68057 30.3993C6.66753 30.3731 6.60661 30.3557 6.55002 30.3557C6.49343 30.3557 6.43251 30.3339 6.41947 30.3124C6.40639 30.2863 6.34547 30.2688 6.28453 30.2688C6.22797 30.2688 6.18009 30.247 6.18009 30.2253C6.18009 30.1991 6.13222 30.1817 6.07563 30.1817C6.01471 30.1817 5.95376 30.1599 5.94072 30.1381C5.92765 30.112 5.87977 30.0945 5.84061 30.0945C5.80145 30.0945 5.64911 30.0338 5.50549 29.9641C5.36186 29.89 5.2226 29.8337 5.19215 29.8337C5.16168 29.8337 5.13556 29.8119 5.13556 29.7901C5.13556 29.7639 5.0964 29.7465 5.05288 29.7465C5.00501 29.7465 4.96146 29.7334 4.95278 29.7116C4.93971 29.6855 4.53498 29.4592 4.27817 29.3375C4.22161 29.3113 4.17809 29.2765 4.17809 29.2547C4.17809 29.2373 4.15198 29.2242 4.1215 29.2242C4.09103 29.2242 4.02575 29.1893 3.97788 29.1458C3.8952 29.0763 3.84297 29.0458 3.6036 28.9064C3.54701 28.8805 3.4948 28.8457 3.48173 28.8326C3.46869 28.8195 3.39034 28.7585 3.30766 28.7019C3.22496 28.6455 3.14661 28.5845 3.13356 28.5714C3.12052 28.5584 3.04217 28.4974 2.95947 28.4407C2.87679 28.3843 2.77668 28.3059 2.74188 28.2667C2.70705 28.2318 2.6026 28.145 2.5112 28.0753C2.28924 27.91 1.35352 26.9785 1.21861 26.787C1.15768 26.7043 1.03582 26.5607 0.948773 26.4649C0.857378 26.3735 0.78339 26.2735 0.78339 26.2474C0.78339 26.2212 0.744221 26.169 0.696346 26.1342C0.648474 26.0994 0.609303 26.0515 0.609303 26.0254C0.609303 26.0036 0.548373 25.9122 0.478739 25.8295C0.409103 25.7468 0.348173 25.6511 0.348173 25.6206C0.348173 25.5945 0.330766 25.5684 0.304653 25.5684C0.282891 25.5684 0.26113 25.5423 0.26113 25.5118C0.26113 25.4814 0.221961 25.4117 0.174087 25.3595C0.126213 25.3073 0.0870436 25.2377 0.0870436 25.1985C0.0870436 25.1637 0.0696346 25.1332 0.0435216 25.1332C0.0217608 25.1332 0 25.094 0 25.0462C0 24.9896 0.0304653 24.9591 0.0870436 24.9591C0.134917 24.9591 0.174087 24.9417 0.174087 24.9199C0.174087 24.8982 0.208904 24.8721 0.252426 24.859C0.352525 24.8242 0.58319 24.6849 0.600599 24.6414C0.609303 24.624 0.652826 24.6109 0.700701 24.6109C0.744221 24.6109 0.78339 24.5935 0.78339 24.5718C0.78339 24.55 0.818209 24.5239 0.861729 24.5108C0.961831 24.476 1.1925 24.3367 1.2099 24.2932C1.21861 24.2758 1.26213 24.2628 1.31 24.2628C1.35352 24.2628 1.3927 24.2454 1.3927 24.2279C1.3927 24.2105 1.48844 24.1452 1.6103 24.0843C1.72781 24.0277 1.82791 23.9668 1.82791 23.945C1.82791 23.9276 1.86708 23.9146 1.91495 23.9146C1.96283 23.9146 2.002 23.8972 2.002 23.8754C2.002 23.8536 2.03681 23.8275 2.08034 23.8145C2.18044 23.7797 2.4111 23.6404 2.42851 23.5969C2.43721 23.5795 2.47203 23.5664 2.50685 23.5664C2.54167 23.5664 2.6113 23.5272 2.66353 23.4794C2.71575 23.4315 2.7854 23.3923 2.81584 23.3923C2.84632 23.3923 2.87243 23.3706 2.87243 23.3488C2.87243 23.3227 2.91159 23.3053 2.95947 23.3053C3.00734 23.3053 3.04653 23.2922 3.04653 23.2705C3.04653 23.2531 3.09873 23.2182 3.15968 23.1878C3.26412 23.1399 3.2859 23.1486 3.47737 23.3488C3.5862 23.462 3.76462 23.6621 3.87344 23.7884C4.16067 24.1235 4.70033 24.6588 4.8875 24.8024C4.97889 24.8677 5.11816 24.9852 5.19215 25.0636C5.27047 25.1375 5.40105 25.2463 5.48373 25.3073C5.56643 25.3638 5.67959 25.4552 5.73182 25.5118C5.78402 25.5641 5.88849 25.6424 5.96248 25.6816C6.03211 25.7251 6.09303 25.7773 6.09303 25.7947C6.09303 25.8121 6.11915 25.8295 6.14962 25.8295C6.17573 25.8295 6.27148 25.8905 6.35416 25.9601C6.43687 26.0297 6.53262 26.0907 6.56306 26.0907C6.58918 26.0907 6.61529 26.1081 6.61529 26.1298C6.61529 26.1516 6.65448 26.1864 6.70236 26.1995C6.75021 26.2125 6.81551 26.2517 6.84595 26.2778C6.9243 26.3518 7.14627 26.4824 7.23767 26.5128C7.27683 26.5259 7.31166 26.552 7.31166 26.5738C7.31166 26.5955 7.35082 26.6129 7.39434 26.6129C7.44221 26.6129 7.48573 26.626 7.49444 26.6434C7.51184 26.6913 7.87308 26.8741 7.94707 26.8741C7.98188 26.8741 8.00799 26.8915 8.00799 26.9176C8.00799 26.9393 8.04715 26.9611 8.09503 26.9611C8.1429 26.9611 8.18209 26.9785 8.18209 27.0046C8.18209 27.0264 8.20821 27.0481 8.23865 27.0481C8.27348 27.0481 8.35616 27.0743 8.42579 27.1091C8.66081 27.2222 8.85667 27.3006 9.03076 27.3572C9.12651 27.3876 9.22226 27.4311 9.24402 27.4486C9.27011 27.466 9.33106 27.4834 9.38329 27.4834C9.43985 27.4834 9.49644 27.5008 9.50949 27.5269C9.52256 27.5487 9.57479 27.5704 9.62266 27.5704C9.66618 27.5704 9.74017 27.5878 9.78369 27.6096C9.92296 27.6792 10.1667 27.7444 10.2972 27.7444C10.3712 27.7444 10.4452 27.7618 10.4713 27.7836C10.4931 27.8054 10.5975 27.8359 10.7064 27.8489C10.8151 27.862 11.0414 27.8969 11.2068 27.923C11.5855 27.9925 13.6484 27.9925 14.0793 27.9274C14.4405 27.8707 14.7452 27.8097 15.015 27.7444C15.1238 27.7184 15.2761 27.6836 15.3545 27.6705C15.4328 27.6574 15.5068 27.6313 15.5198 27.6096C15.5329 27.5878 15.5895 27.5704 15.6461 27.5704C15.7026 27.5704 15.7636 27.5487 15.7766 27.5269C15.7897 27.5008 15.8593 27.4834 15.929 27.4834C15.9986 27.4834 16.0682 27.4616 16.0813 27.4398C16.0943 27.4137 16.1466 27.3963 16.1944 27.3963C16.238 27.3963 16.2771 27.3746 16.2771 27.3528C16.2771 27.3267 16.3381 27.3093 16.4077 27.3093C16.4817 27.3093 16.5382 27.2875 16.5382 27.2658C16.5382 27.2396 16.5774 27.2222 16.6253 27.2222C16.6732 27.2222 16.7776 27.1831 16.8647 27.1352C16.9517 27.0873 17.0474 27.0481 17.0823 27.0481C17.1171 27.0481 17.1476 27.0264 17.1476 27.0046C17.1476 26.9785 17.1867 26.9611 17.2346 26.9611C17.2825 26.9611 17.3216 26.9393 17.3216 26.9176C17.3216 26.8915 17.3608 26.8741 17.4087 26.8741C17.4566 26.8741 17.4957 26.8523 17.4957 26.8305C17.4957 26.8044 17.5349 26.787 17.5828 26.787C17.6307 26.787 17.6698 26.7653 17.6698 26.7435C17.6698 26.7174 17.709 26.7 17.7569 26.7C17.8047 26.7 17.8439 26.6826 17.8439 26.6652C17.8439 26.6434 17.944 26.5825 18.0615 26.5259C18.1834 26.4693 18.2791 26.4084 18.2791 26.3866C18.2791 26.3692 18.3183 26.3518 18.3662 26.3518C18.414 26.3518 18.4532 26.3344 18.4532 26.317C18.4532 26.2952 18.5054 26.2517 18.5751 26.2169C18.6404 26.1821 18.7317 26.1211 18.7753 26.0776C18.8231 26.0385 18.8841 26.0036 18.9102 26.0036C18.9363 26.0036 18.9842 25.9645 19.019 25.9166C19.0538 25.8687 19.1017 25.8295 19.1278 25.8295C19.1539 25.8295 19.2148 25.7947 19.2627 25.7512C19.3062 25.7077 19.415 25.625 19.4977 25.5684C19.5804 25.5118 19.724 25.39 19.8111 25.2986C19.8981 25.2072 19.9895 25.1332 20.0113 25.1332C20.0679 25.1332 20.9122 24.2932 21.1515 24.0016C21.2604 23.8711 21.3996 23.71 21.4649 23.6447C21.5345 23.5838 21.5868 23.5142 21.5868 23.4881C21.5868 23.4663 21.6477 23.388 21.7173 23.314C21.7913 23.2357 21.8479 23.1617 21.8479 23.1442C21.8479 23.1225 21.9088 23.0398 21.9785 22.9571C22.0481 22.8744 22.109 22.7874 22.109 22.77C22.109 22.7526 22.1482 22.696 22.1961 22.6438C22.244 22.5915 22.2831 22.5219 22.2831 22.4914C22.2831 22.4609 22.3049 22.4349 22.3266 22.4349C22.3527 22.4349 22.3702 22.4087 22.3702 22.3783C22.3702 22.3478 22.4093 22.2782 22.4572 22.2259C22.5051 22.1737 22.5442 22.1041 22.5442 22.0693C22.5442 22.0345 22.5573 21.9996 22.5791 21.9909C22.6095 21.9779 22.727 21.769 22.9446 21.3251C23.0143 21.1814 23.0883 21.0291 23.1144 20.9899C23.1361 20.9464 23.1535 20.8811 23.1535 20.8463C23.1535 20.8115 23.1753 20.781 23.1971 20.781C23.2232 20.781 23.2406 20.7418 23.2406 20.694C23.2406 20.6461 23.2624 20.6069 23.2885 20.6069C23.3189 20.6069 23.3276 20.6635 23.3102 20.768Z" fill="white"/>
<path d="M26.4697 24.0668C26.3914 24.6935 26.3 25.2201 26.1999 25.6118C26.1738 25.7206 26.1389 25.8729 26.1259 25.9469C26.1128 26.0253 26.0867 26.0906 26.0649 26.0906C26.0432 26.0906 26.0258 26.1341 26.0258 26.1863C26.0258 26.2864 25.9561 26.5388 25.8909 26.665C25.8691 26.7086 25.8517 26.7826 25.8517 26.8261C25.8517 26.874 25.8343 26.9218 25.8169 26.9349C25.7995 26.9479 25.756 27.0567 25.7211 27.1743C25.6907 27.2961 25.6471 27.3962 25.6254 27.3962C25.608 27.3962 25.5906 27.4267 25.5906 27.4615C25.5906 27.4963 25.5731 27.5659 25.547 27.6138C25.5253 27.6617 25.4861 27.7399 25.46 27.7879C25.4382 27.8358 25.4165 27.9055 25.4165 27.9404C25.4165 27.9749 25.3991 28.0054 25.373 28.0054C25.3512 28.0054 25.3294 28.0447 25.3294 28.0926C25.3294 28.1405 25.312 28.1797 25.2859 28.1797C25.2641 28.1797 25.2424 28.2187 25.2424 28.2666C25.2424 28.3145 25.225 28.3537 25.1989 28.3537C25.1771 28.3537 25.1553 28.3799 25.1553 28.4104C25.1553 28.4885 25.0509 28.7018 25.0161 28.7018C24.9943 28.7018 24.9813 28.741 24.9813 28.7889C24.9813 28.8368 24.9682 28.8761 24.9464 28.8761C24.929 28.8761 24.8812 28.9499 24.842 29.0457C24.8028 29.1369 24.7419 29.2415 24.7114 29.2764C24.681 29.3069 24.6287 29.3807 24.6026 29.433C24.5722 29.4853 24.5199 29.5724 24.4938 29.6244C24.4633 29.6767 24.4024 29.7595 24.3633 29.8074C24.3197 29.8551 24.2849 29.9161 24.2849 29.9422C24.2849 29.9684 24.2458 30.0163 24.1979 30.0511C24.15 30.0857 24.1108 30.1337 24.1108 30.1598C24.1108 30.1859 24.076 30.2469 24.0325 30.2949C23.989 30.3382 23.9106 30.4471 23.8497 30.5299C23.7931 30.6124 23.7148 30.7126 23.6756 30.7475C23.6364 30.7821 23.5581 30.8823 23.5015 30.9651C23.3753 31.1434 21.913 32.6189 21.8608 32.6189C21.8434 32.6189 21.7432 32.6971 21.6388 32.7929C21.5387 32.8888 21.4386 32.9669 21.4168 32.9669C21.3994 32.9669 21.3254 33.0192 21.2558 33.0889C21.1862 33.154 21.073 33.2324 21.0077 33.2673C20.9425 33.3022 20.8902 33.3457 20.8902 33.3672C20.8902 33.3847 20.8641 33.4021 20.8336 33.4021C20.8032 33.4021 20.7379 33.437 20.69 33.4762C20.6073 33.5502 20.5551 33.5807 20.3157 33.7199C20.2592 33.746 20.2069 33.7809 20.1939 33.794C20.1503 33.8375 19.911 33.9724 19.837 33.9985C19.7935 34.0116 19.7587 34.0377 19.7587 34.0595C19.7587 34.081 19.7195 34.0984 19.6716 34.0984C19.6237 34.0984 19.5846 34.1159 19.5846 34.142C19.5846 34.1638 19.5454 34.1856 19.4975 34.1856C19.4496 34.1856 19.4105 34.203 19.4105 34.2292C19.4105 34.2509 19.3713 34.2727 19.3235 34.2727C19.2756 34.2727 19.2364 34.2902 19.2364 34.316C19.2364 34.3378 19.2103 34.3596 19.1755 34.3596C19.1232 34.3596 18.984 34.4206 18.6619 34.5815C18.6184 34.6033 18.5531 34.6208 18.5183 34.6208C18.4835 34.6208 18.453 34.6382 18.453 34.6643C18.453 34.6861 18.3964 34.7079 18.3224 34.7079C18.2528 34.7079 18.1919 34.7253 18.1919 34.7428C18.1919 34.7602 18.1005 34.7991 17.9873 34.8296C17.8698 34.8645 17.7436 34.9081 17.7044 34.9298C17.6609 34.9516 17.5782 34.9691 17.5216 34.9691C17.4607 34.9691 17.3998 34.9865 17.3867 35.0126C17.3737 35.0341 17.2953 35.0559 17.2126 35.0559C17.13 35.0559 17.056 35.0734 17.0429 35.0951C17.0298 35.1169 16.9559 35.1474 16.8775 35.1605C16.7992 35.1779 16.6382 35.2084 16.5163 35.2346C15.8461 35.3694 15.524 35.4086 14.5926 35.4739L14.1879 35.4998V31.6701L14.288 31.6396C14.3794 31.6048 14.4751 31.583 14.9495 31.4915C15.0714 31.47 15.2542 31.4264 15.363 31.4002C15.4718 31.3741 15.6241 31.3392 15.7024 31.3262C15.7764 31.3131 15.8417 31.287 15.8417 31.2652C15.8417 31.2437 15.8852 31.2262 15.9331 31.2262C16.0158 31.2262 16.4423 31.1042 16.6904 31.0086C16.7382 30.9869 16.8471 30.952 16.9297 30.9215C17.0124 30.891 17.1256 30.8518 17.1822 30.83C17.2344 30.8082 17.3215 30.7736 17.378 30.7518C17.539 30.6908 17.7305 30.608 17.8089 30.5688C17.8524 30.547 17.9177 30.5299 17.9525 30.5299C17.9873 30.5299 18.0178 30.5081 18.0178 30.4863C18.0178 30.4602 18.0569 30.4427 18.1048 30.4427C18.1527 30.4427 18.1919 30.421 18.1919 30.3992C18.1919 30.373 18.231 30.3556 18.2789 30.3556C18.3268 30.3556 18.366 30.3338 18.366 30.312C18.366 30.2862 18.4051 30.2687 18.4487 30.2687C18.4965 30.2687 18.5401 30.2557 18.5487 30.2339C18.5618 30.2077 18.7881 30.077 19.0492 29.9466C19.1058 29.9204 19.1494 29.8856 19.1494 29.8638C19.1494 29.8464 19.1885 29.8333 19.2364 29.8333C19.2843 29.8333 19.3235 29.8161 19.3235 29.7987C19.3235 29.7769 19.3757 29.7333 19.4453 29.6985C19.5106 29.6636 19.602 29.6026 19.6455 29.5593C19.6934 29.5201 19.7587 29.4853 19.7891 29.4853C19.8196 29.4853 19.8457 29.4635 19.8457 29.4417C19.8457 29.4155 19.8718 29.3981 19.9023 29.3981C19.9328 29.3981 19.998 29.3633 20.0459 29.32C20.0894 29.2764 20.1982 29.1936 20.2809 29.1369C20.3636 29.0806 20.4593 29.0065 20.4898 28.976C20.5246 28.9455 20.6204 28.863 20.7074 28.7976C20.9207 28.641 22.1959 27.357 22.1959 27.3004C22.1959 27.2787 22.2568 27.2004 22.3264 27.1351C22.4004 27.0698 22.457 26.9958 22.457 26.974C22.457 26.9566 22.5179 26.8696 22.5876 26.7869C22.6572 26.7042 22.7181 26.6085 22.7181 26.578C22.7181 26.5519 22.7355 26.5258 22.7529 26.5258C22.7747 26.5258 22.8182 26.4736 22.8531 26.4039C22.8879 26.3386 22.9227 26.2777 22.9357 26.2646C22.9793 26.2211 23.1142 25.9817 23.1403 25.9034C23.1533 25.8642 23.1795 25.8294 23.2012 25.8294C23.223 25.8294 23.2404 25.7903 23.2404 25.7424C23.2404 25.6945 23.2621 25.6553 23.2839 25.6553C23.31 25.6553 23.3274 25.6162 23.3274 25.5683C23.3274 25.5204 23.3492 25.4813 23.371 25.4813C23.3971 25.4813 23.4145 25.4421 23.4145 25.3942C23.4145 25.3463 23.4362 25.3072 23.458 25.3072C23.4841 25.3072 23.5015 25.268 23.5015 25.2201C23.5015 25.1723 23.5233 25.1331 23.545 25.1331C23.5712 25.1331 23.5886 25.1026 23.5886 25.0678C23.5886 25.033 23.606 24.9677 23.6277 24.9242C23.6495 24.885 23.6887 24.7893 23.7191 24.7196C23.7496 24.6456 23.7888 24.5542 23.8105 24.5151C23.8323 24.4716 23.8497 24.3976 23.8497 24.3497C23.8497 24.3018 23.8714 24.2626 23.8932 24.2626C23.9193 24.2626 23.9367 24.2017 23.9367 24.1321C23.9367 24.0581 23.9585 24.0015 23.9803 24.0015C24.0064 24.0015 24.0238 23.9449 24.0238 23.8753C24.0238 23.8013 24.0455 23.7317 24.0673 23.7186C24.0934 23.7056 24.1108 23.6229 24.1108 23.5402C24.1108 23.4575 24.1282 23.3922 24.15 23.3922C24.1718 23.3922 24.1979 23.3095 24.2109 23.2051C24.224 23.105 24.2588 22.9135 24.2849 22.7829C24.311 22.6524 24.3545 22.3956 24.3807 22.2171C24.4459 21.7863 24.4416 19.4274 24.3807 18.9748C24.3502 18.7833 24.3197 18.5265 24.3023 18.409C24.2893 18.2871 24.2588 18.174 24.237 18.1479C24.2153 18.1261 24.1979 18.0347 24.1979 17.9476C24.1979 17.8562 24.1805 17.7692 24.1543 17.7562C24.1326 17.7431 24.1108 17.6648 24.1108 17.5821C24.1108 17.4994 24.0934 17.421 24.0673 17.408C24.0455 17.3949 24.0238 17.3253 24.0238 17.2557C24.0238 17.186 24.0064 17.1164 23.9803 17.1033C23.9585 17.0903 23.9367 17.0206 23.9367 16.9554C23.9367 16.8901 23.9193 16.8204 23.9019 16.7987C23.8802 16.7726 23.8192 16.6072 23.7627 16.4288C23.7017 16.2503 23.6451 16.0936 23.6277 16.0806C23.6147 16.0675 23.5755 15.9674 23.5407 15.8499C23.5102 15.7367 23.4667 15.6454 23.4493 15.6454C23.4319 15.6454 23.4145 15.6062 23.4145 15.5583C23.4145 15.5104 23.3971 15.4713 23.371 15.4713C23.3492 15.4713 23.3274 15.4452 23.3274 15.4103C23.3274 15.3363 23.1446 14.9751 23.1011 14.9577C23.0794 14.949 23.0663 14.9055 23.0663 14.8576C23.0663 14.8141 23.0489 14.7749 23.0228 14.7749C23.001 14.7749 22.9793 14.7358 22.9793 14.6879C22.9793 14.64 22.9619 14.6009 22.9401 14.6009C22.9183 14.6009 22.8922 14.566 22.8792 14.5225C22.8443 14.4224 22.7051 14.1917 22.6659 14.1743C22.6442 14.1656 22.6311 14.1221 22.6311 14.0742C22.6311 14.0307 22.6137 13.9915 22.5963 13.9915C22.5745 13.9915 22.531 13.9393 22.4962 13.8697C22.4613 13.8044 22.4004 13.7217 22.3613 13.6825C22.3177 13.6434 22.2829 13.5955 22.2829 13.5737C22.2829 13.552 22.222 13.4649 22.1523 13.3822C22.0348 13.243 21.9826 13.1211 22.0435 13.1211C22.0566 13.1211 22.1349 13.1864 22.2133 13.2604C22.296 13.3387 22.4396 13.478 22.531 13.565C22.6267 13.6564 22.7181 13.7304 22.7355 13.7304C22.7704 13.7304 23.001 13.9698 23.2404 14.2527C23.3231 14.3528 23.471 14.5181 23.5668 14.6183C23.6625 14.714 23.7888 14.8663 23.8497 14.949C23.9063 15.0317 23.9672 15.11 23.9803 15.1231C23.9933 15.1362 24.0543 15.2145 24.1108 15.2972C24.1674 15.3799 24.2414 15.4756 24.2719 15.5061C24.3023 15.5366 24.3284 15.5801 24.3284 15.5975C24.3284 15.6149 24.3763 15.6889 24.4372 15.7585C24.4982 15.8281 24.546 15.9108 24.546 15.937C24.546 15.9674 24.5678 15.9935 24.5896 15.9935C24.6157 15.9935 24.6331 16.0196 24.6331 16.0501C24.6331 16.0806 24.6722 16.1502 24.7201 16.2024C24.768 16.2547 24.8072 16.3243 24.8072 16.3635C24.8072 16.3983 24.8246 16.4288 24.842 16.4288C24.8594 16.4288 24.9247 16.5245 24.9856 16.6464C25.0422 16.7639 25.1031 16.864 25.1249 16.864C25.1423 16.864 25.1553 16.9031 25.1553 16.951C25.1553 16.9989 25.1771 17.0381 25.1989 17.0381C25.225 17.0381 25.2424 17.0772 25.2424 17.1251C25.2424 17.173 25.2641 17.2121 25.2859 17.2121C25.312 17.2121 25.3294 17.2513 25.3294 17.2992C25.3294 17.3471 25.3512 17.3862 25.373 17.3862C25.3991 17.3862 25.4165 17.4123 25.4165 17.4428C25.4165 17.4733 25.4556 17.5821 25.5035 17.6822C25.5514 17.7779 25.5906 17.8911 25.5906 17.9302C25.5906 17.9651 25.608 17.9955 25.6254 17.9955C25.6471 17.9955 25.6907 18.0913 25.7211 18.2131C25.7516 18.3306 25.7951 18.4307 25.8169 18.4307C25.8343 18.4307 25.8517 18.4873 25.8517 18.5613C25.8517 18.6309 25.8735 18.6919 25.8952 18.6919C25.9213 18.6919 25.9387 18.7398 25.9387 18.8007C25.9387 18.8616 25.9561 18.9443 25.9779 18.9878C26.0389 19.114 26.1128 19.3665 26.1128 19.4666C26.1128 19.5144 26.1346 19.571 26.1564 19.5841C26.1825 19.5971 26.1999 19.6755 26.1999 19.7582C26.1999 19.8408 26.2216 19.9192 26.2434 19.9322C26.2695 19.9453 26.2869 20.0454 26.2869 20.1499C26.2869 20.2543 26.3087 20.3544 26.3304 20.3675C26.3565 20.3805 26.3739 20.5067 26.3739 20.646C26.3739 20.7853 26.3914 20.9115 26.4131 20.9376C26.5176 21.0464 26.5611 23.3618 26.4697 24.0668Z" fill="white"/>
<path d="M31.6793 24.5892C31.6575 24.7329 31.627 24.9331 31.6139 25.0332C31.5965 25.1376 31.5703 25.2203 31.5486 25.2203C31.5268 25.2203 31.5093 25.2812 31.5093 25.3596C31.5093 25.4945 31.4486 25.7382 31.3745 25.8818C31.3528 25.9254 31.3353 26.0081 31.3353 26.069C31.3353 26.1299 31.3179 26.1778 31.2918 26.1778C31.27 26.1778 31.2482 26.2344 31.2482 26.3083C31.2482 26.378 31.2308 26.4389 31.2049 26.4389C31.1831 26.4389 31.1613 26.4955 31.1613 26.5695C31.1613 26.6391 31.1439 26.7001 31.1177 26.7001C31.096 26.7001 31.0742 26.7305 31.0742 26.7653C31.0742 26.8001 31.0567 26.8698 31.0306 26.9177C31.0088 26.9655 30.9699 27.0439 30.9437 27.0917C30.9219 27.1396 30.9002 27.2093 30.9002 27.2441C30.9002 27.2789 30.8827 27.3094 30.8566 27.3094C30.8348 27.3094 30.813 27.3355 30.813 27.3703C30.813 27.4486 30.3778 28.3104 30.2994 28.3932C30.2648 28.4277 30.2256 28.4365 30.2125 28.4149C30.1951 28.3932 30.1385 28.3496 30.0862 28.3191C30.0298 28.2929 29.9427 28.2407 29.8904 28.2102C29.8337 28.184 29.7817 28.1494 29.7686 28.1364C29.7251 28.0928 29.4857 27.9577 29.4116 27.9318C29.3681 27.9188 29.3335 27.8926 29.3335 27.8708C29.3335 27.8491 29.2943 27.8316 29.2463 27.8316C29.1984 27.8316 29.1592 27.8142 29.1592 27.7924C29.1592 27.7706 29.1243 27.7445 29.0854 27.7315C28.9808 27.6967 28.7501 27.5574 28.7327 27.5139C28.724 27.4965 28.6804 27.4834 28.6328 27.4834C28.5892 27.4834 28.55 27.466 28.55 27.4443C28.55 27.4225 28.5151 27.3964 28.4759 27.3834C28.3716 27.3485 28.141 27.2093 28.1235 27.1657C28.1148 27.1483 28.0712 27.1353 28.0233 27.1353C27.9797 27.1353 27.9405 27.1179 27.9405 27.0961C27.9405 27.0743 27.9059 27.0482 27.8667 27.0352C27.7883 27.0091 27.5489 26.8741 27.5054 26.8306C27.4923 26.8176 27.4403 26.7827 27.388 26.7523C26.9745 26.526 26.9788 26.5303 27.0441 26.3388C27.0746 26.2518 27.1094 26.1647 27.1268 26.1517C27.1442 26.1343 27.1573 26.082 27.1573 26.0385C27.1573 25.995 27.1747 25.9254 27.1964 25.8818C27.2616 25.7556 27.3313 25.5032 27.3313 25.4031C27.3313 25.3509 27.3488 25.3074 27.3706 25.3074C27.3923 25.3074 27.4185 25.2421 27.4316 25.1637C27.4446 25.0897 27.4792 24.9374 27.5054 24.8286C27.5315 24.7198 27.5664 24.5588 27.5794 24.4674C27.5925 24.3803 27.6186 24.2933 27.6404 24.2802C27.6622 24.2672 27.6796 24.1758 27.6796 24.0713C27.6796 23.9669 27.6971 23.8711 27.7186 23.8494C27.7404 23.8233 27.7709 23.6884 27.7839 23.5447C27.797 23.4011 27.8319 23.1052 27.858 22.8919C27.9234 22.4045 27.9234 20.446 27.858 19.976C27.8319 19.7845 27.8014 19.519 27.7839 19.3884C27.7709 19.2579 27.7404 19.1316 27.7186 19.1055C27.6971 19.0838 27.6796 18.9924 27.6796 18.9053C27.6796 18.8139 27.6622 18.7269 27.6361 18.7138C27.6143 18.7008 27.5925 18.6224 27.5925 18.5397C27.5925 18.4571 27.5751 18.3787 27.5489 18.3656C27.5271 18.3526 27.5054 18.296 27.5054 18.2438C27.5054 18.1393 27.4098 17.839 27.3618 17.7955C27.3444 17.7781 27.3313 17.7172 27.3313 17.6606C27.3313 17.6084 27.3139 17.5605 27.2878 17.5605C27.266 17.5605 27.2442 17.4996 27.2442 17.4299C27.2442 17.3559 27.2269 17.2994 27.2008 17.2994C27.179 17.2994 27.1573 17.2689 27.1573 17.2341C27.1573 17.1993 27.1399 17.1296 27.1137 17.0818C27.092 17.0339 27.0528 16.9555 27.0267 16.9077C27.0049 16.8598 26.9832 16.7902 26.9832 16.7554C26.9832 16.7205 26.9658 16.6901 26.9396 16.6901C26.9179 16.6901 26.8961 16.6509 26.8961 16.603C26.8961 16.5551 26.8787 16.516 26.8526 16.516C26.8309 16.516 26.8091 16.4768 26.8091 16.4333C26.8091 16.3854 26.796 16.3419 26.7786 16.3332C26.7569 16.3245 26.6959 16.2287 26.6394 16.1112C26.5828 15.9981 26.5175 15.9067 26.4957 15.9067C26.4783 15.9067 26.4609 15.8675 26.4609 15.8196C26.4609 15.7718 26.4435 15.7326 26.4174 15.7326C26.3956 15.7326 26.3739 15.7065 26.3739 15.676C26.3739 15.6456 26.3347 15.5759 26.2868 15.5237C26.239 15.4715 26.1998 15.4149 26.1998 15.3975C26.1998 15.3801 26.1389 15.293 26.0692 15.2103C25.9996 15.1276 25.9387 15.0406 25.9387 15.0189C25.9387 14.9971 25.9038 14.9492 25.8603 14.91C25.8168 14.8709 25.7385 14.7751 25.6819 14.6968C25.5774 14.5488 24.9115 13.8351 24.7244 13.6697C24.6678 13.6218 24.5373 13.4999 24.4415 13.4042C24.3414 13.3084 24.1934 13.1822 24.1107 13.1213C24.0281 13.0647 23.9497 13.0038 23.9367 12.9907C23.9236 12.9777 23.8452 12.9167 23.7626 12.8602C23.6799 12.8036 23.5841 12.7296 23.5537 12.6991C23.5232 12.6687 23.4405 12.6121 23.3709 12.5686C23.2969 12.5294 23.2403 12.4772 23.2403 12.4598C23.2403 12.4424 23.2011 12.425 23.1533 12.425C23.1054 12.425 23.0662 12.4075 23.0662 12.3901C23.0662 12.3684 23.014 12.3249 22.9487 12.29C22.8791 12.2552 22.8181 12.2204 22.8051 12.2073C22.7616 12.1638 22.5222 12.0289 22.4482 12.0028C22.4047 11.9897 22.3699 11.9636 22.3699 11.9419C22.3699 11.9201 22.3307 11.9027 22.2828 11.9027C22.235 11.9027 22.1958 11.8809 22.1958 11.8592C22.1958 11.8331 22.1566 11.8157 22.1087 11.8157C22.0609 11.8157 22.0217 11.7939 22.0217 11.7721C22.0217 11.746 21.9825 11.7286 21.9347 11.7286C21.8868 11.7286 21.8476 11.7068 21.8476 11.6851C21.8476 11.659 21.8084 11.6416 21.7606 11.6416C21.7127 11.6416 21.6735 11.6198 21.6735 11.598C21.6735 11.5719 21.6343 11.5545 21.5865 11.5545C21.5386 11.5545 21.4994 11.5371 21.4994 11.5197C21.4994 11.4979 21.4037 11.4544 21.2818 11.4239C21.1643 11.3935 21.0642 11.35 21.0642 11.3282C21.0642 11.3108 21.025 11.2934 20.9815 11.2934C20.9337 11.2934 20.8814 11.2716 20.8684 11.2499C20.8553 11.2238 20.7944 11.2063 20.7335 11.2063C20.6769 11.2063 20.629 11.1846 20.629 11.1628C20.629 11.1367 20.5811 11.1193 20.5245 11.1193C20.4636 11.1193 20.4027 11.0975 20.3896 11.0758C20.3766 11.0497 20.3156 11.0323 20.2591 11.0323C20.2025 11.0323 20.1416 11.0105 20.1285 10.9887C20.1155 10.9626 20.0458 10.9452 19.9718 10.9452C19.9022 10.9452 19.8456 10.9234 19.8456 10.9017C19.8456 10.8756 19.789 10.8582 19.7151 10.8582C19.6454 10.8582 19.5845 10.8364 19.5845 10.8146C19.5845 10.7885 19.5062 10.7711 19.4148 10.7711C19.3233 10.7711 19.232 10.7537 19.2189 10.732C19.2058 10.7102 19.1188 10.6841 19.0318 10.6667C18.9404 10.6536 18.7402 10.6231 18.5835 10.597C17.922 10.4882 17.539 10.4578 16.4118 10.4404C15.6022 10.423 15.2062 10.4316 15.1757 10.4621C15.1148 10.523 14.8406 10.523 14.8406 10.4665C14.8406 10.4404 14.8711 10.423 14.9059 10.423C14.9407 10.423 14.9712 10.4012 14.9712 10.3794C14.9712 10.3533 15.0321 10.3359 15.1018 10.3359C15.1757 10.3359 15.2323 10.3141 15.2323 10.2924C15.2323 10.2663 15.2889 10.2489 15.3585 10.2489C15.4325 10.2489 15.5022 10.2271 15.5152 10.2053C15.5283 10.1792 15.5892 10.1618 15.6458 10.1618C15.7023 10.1618 15.7633 10.1401 15.7763 10.1183C15.7894 10.0922 15.8721 10.0748 15.9548 10.0748C16.0375 10.0748 16.1027 10.053 16.1027 10.0312C16.1027 10.0051 16.1811 9.98773 16.2725 9.98773C16.3639 9.98773 16.4553 9.97033 16.4683 9.94857C16.4814 9.93117 16.5858 9.9007 16.699 9.8833C16.8165 9.87022 17.0167 9.83542 17.1473 9.81363C17.2778 9.78755 17.5868 9.74836 17.8349 9.7266C18.083 9.7092 18.2962 9.67873 18.3136 9.66132C18.3528 9.62216 20.1198 9.67004 20.6072 9.72224C20.8249 9.74836 21.1252 9.78755 21.2818 9.81363C21.4385 9.83975 21.6431 9.87022 21.7388 9.8833C21.8346 9.89634 21.9303 9.92681 21.9564 9.94857C21.9782 9.97033 22.0609 9.98773 22.1349 9.98773C22.2132 9.98773 22.2915 10.0051 22.3046 10.0312C22.3176 10.053 22.3873 10.0748 22.4569 10.0748C22.5265 10.0748 22.5962 10.0922 22.6092 10.1183C22.6223 10.1401 22.6919 10.1618 22.7659 10.1618C22.8355 10.1618 22.8921 10.1792 22.8921 10.2053C22.8921 10.2271 22.9531 10.2489 23.0227 10.2489C23.0967 10.2489 23.1533 10.2663 23.1533 10.2924C23.1533 10.3141 23.1924 10.3359 23.2403 10.3359C23.2882 10.3359 23.3665 10.3533 23.4144 10.3794C23.4623 10.4012 23.5406 10.4404 23.5885 10.4665C23.6363 10.4882 23.7147 10.51 23.7626 10.51C23.8104 10.51 23.8496 10.5274 23.8496 10.5535C23.8496 10.5753 23.8801 10.597 23.9149 10.597C23.9541 10.597 24.0672 10.6362 24.163 10.6841C24.2631 10.732 24.3719 10.7711 24.4023 10.7711C24.4328 10.7711 24.4589 10.7885 24.4589 10.8146C24.4589 10.8364 24.4981 10.8582 24.546 10.8582C24.5938 10.8582 24.633 10.8756 24.633 10.9017C24.633 10.9234 24.6722 10.9452 24.72 10.9452C24.7679 10.9452 24.8071 10.9626 24.8071 10.9887C24.8071 11.0105 24.8463 11.0323 24.8941 11.0323C24.942 11.0323 24.9812 11.0497 24.9812 11.0714C24.9812 11.0932 25.016 11.1193 25.0595 11.1324C25.1596 11.1672 25.3903 11.3064 25.4077 11.3456C25.4164 11.3674 25.4512 11.3804 25.486 11.3804C25.5208 11.3804 25.5905 11.4196 25.6427 11.4675C25.6949 11.5153 25.7646 11.5545 25.795 11.5545C25.8255 11.5545 25.8516 11.5719 25.8516 11.598C25.8516 11.6198 25.8777 11.6416 25.9082 11.6416C25.9343 11.6416 26.0301 11.7025 26.1127 11.7721C26.1954 11.8417 26.2912 11.9027 26.3216 11.9027C26.3478 11.9027 26.3739 11.9201 26.3739 11.9375C26.3739 11.9549 26.4305 12.0071 26.5044 12.0463C26.5741 12.0898 26.6568 12.1464 26.6872 12.1769C26.7177 12.2073 26.8134 12.2813 26.8961 12.3379C26.9788 12.3945 27.0963 12.4946 27.1573 12.5555C27.2182 12.6165 27.3444 12.7209 27.4359 12.7905C27.6579 12.9559 28.4541 13.7524 28.6197 13.9743C28.6891 14.0657 28.7894 14.1876 28.8417 14.2398C28.8937 14.292 28.9895 14.4139 29.0592 14.5009C29.1243 14.5923 29.2158 14.7055 29.2594 14.749C29.2986 14.7969 29.3335 14.8578 29.3335 14.8839C29.3335 14.91 29.3724 14.9579 29.4203 14.9927C29.4683 15.0275 29.5075 15.0754 29.5075 15.1015C29.5075 15.1276 29.5423 15.1886 29.5856 15.2364C29.6249 15.28 29.6859 15.3714 29.7207 15.4367C29.7556 15.5063 29.7991 15.5585 29.8207 15.5585C29.8381 15.5585 29.8555 15.5977 29.8555 15.6456C29.8555 15.6934 29.8729 15.7326 29.8904 15.7326C29.9122 15.7326 29.9557 15.7848 29.9906 15.8501C30.0254 15.9197 30.06 15.9807 30.0731 15.9937C30.0949 16.0155 30.2605 16.3201 30.3517 16.5029C30.3778 16.5595 30.4127 16.603 30.4345 16.603C30.4519 16.603 30.465 16.6291 30.465 16.664C30.465 16.7118 30.5911 16.9947 30.7738 17.3516C30.7956 17.3951 30.813 17.4604 30.813 17.4952C30.813 17.53 30.8348 17.5605 30.8566 17.5605C30.8827 17.5605 30.9002 17.5997 30.9002 17.6432C30.9002 17.6911 30.9219 17.7433 30.9437 17.7563C30.9699 17.7694 30.9873 17.8303 30.9873 17.8913C30.9873 17.9478 31.0088 17.9957 31.0306 17.9957C31.0567 17.9957 31.0742 18.0523 31.0742 18.1263C31.0742 18.1959 31.096 18.2568 31.1177 18.2568C31.1439 18.2568 31.1613 18.3047 31.1613 18.3613C31.1613 18.4222 31.1831 18.4832 31.2049 18.4962C31.2308 18.5093 31.2482 18.5702 31.2482 18.6268C31.2482 18.6834 31.27 18.7443 31.2918 18.7574C31.3179 18.7704 31.3353 18.84 31.3353 18.9097C31.3353 18.9793 31.3571 19.049 31.3789 19.062C31.405 19.075 31.4225 19.1578 31.4225 19.2404C31.4225 19.3231 31.4443 19.3884 31.466 19.3884C31.4919 19.3884 31.5093 19.4624 31.5093 19.5538C31.5093 19.6452 31.5268 19.7366 31.5486 19.7583C31.5878 19.8019 31.6139 19.9629 31.6662 20.3894C31.6793 20.4982 31.7051 20.6244 31.7269 20.6723C31.7923 20.8246 31.8272 21.3774 31.8272 22.5002C31.8315 23.5186 31.8054 23.8712 31.6793 24.5892Z" fill="white"/>
<path d="M32.2062 10.8971C32.2062 10.9972 32.1757 11.0363 32.0758 11.0842C32.0061 11.1147 31.9451 11.1538 31.9451 11.1713C31.9451 11.193 31.9061 11.2061 31.8582 11.2061C31.8103 11.2061 31.7711 11.2235 31.7711 11.2452C31.7711 11.267 31.7362 11.2931 31.697 11.3062C31.5927 11.341 31.362 11.4802 31.3446 11.5194C31.3359 11.5412 31.2923 11.5542 31.2444 11.5542C31.2011 11.5542 31.1619 11.5717 31.1619 11.5934C31.1619 11.6152 31.127 11.6413 31.0878 11.6543C30.9832 11.6892 30.7526 11.8284 30.7351 11.8676C30.7267 11.8893 30.6831 11.9024 30.6352 11.9024C30.5916 11.9024 30.5524 11.9198 30.5524 11.9416C30.5524 11.9633 30.5175 11.9895 30.4786 12.0025C30.4002 12.0286 30.1608 12.1635 30.1172 12.2071C30.0954 12.2288 29.791 12.3942 29.608 12.4856C29.5516 12.5117 29.508 12.5465 29.508 12.5639C29.508 12.5857 29.4688 12.5988 29.4209 12.5988C29.373 12.5988 29.3337 12.6162 29.3337 12.6379C29.3337 12.6597 29.2774 12.6989 29.2033 12.7293C29.1336 12.7598 29.0729 12.799 29.0729 12.8207C29.0729 12.8773 28.9421 12.8686 28.8811 12.8033C28.855 12.7772 28.7812 12.6814 28.7246 12.5988C28.5854 12.3985 27.2665 11.0842 27.0707 10.9449C26.988 10.8884 26.8705 10.7883 26.8096 10.7273C26.7487 10.6664 26.6312 10.5663 26.5485 10.5097C26.4658 10.4488 26.357 10.3705 26.3135 10.3269C26.2656 10.2834 26.209 10.2486 26.1872 10.2486C26.1655 10.2486 26.1133 10.2138 26.0741 10.1702C26.0349 10.1311 25.9522 10.0701 25.887 10.0353C25.8173 10.0005 25.7651 9.95699 25.7651 9.93523C25.7651 9.91783 25.739 9.90042 25.7085 9.90042C25.6781 9.90042 25.6128 9.86559 25.5649 9.82208C25.5214 9.78292 25.43 9.72197 25.3647 9.68717C25.2951 9.65234 25.2428 9.60882 25.2428 9.58706C25.2428 9.56966 25.2037 9.55223 25.1601 9.55223C25.1123 9.55223 25.0687 9.53919 25.06 9.51743C25.0383 9.46955 24.8381 9.36073 24.3724 9.13879C24.1461 9.02997 23.9241 8.92117 23.885 8.89941C23.8414 8.8733 23.7761 8.8559 23.7413 8.8559C23.7065 8.8559 23.6761 8.83849 23.6761 8.82107C23.6761 8.79931 23.5803 8.75579 23.4584 8.72532C23.3409 8.69487 23.2408 8.65135 23.2408 8.62957C23.2408 8.61216 23.193 8.59476 23.1364 8.59476C23.0754 8.59476 23.0145 8.573 23.0015 8.55125C22.9884 8.52513 22.9275 8.50773 22.8709 8.50773C22.8143 8.50773 22.7534 8.48597 22.7403 8.46418C22.7273 8.43809 22.6576 8.42067 22.5837 8.42067C22.514 8.42067 22.4574 8.40326 22.4574 8.38151C22.4574 8.35975 22.3922 8.33363 22.3182 8.32059C22.2398 8.30751 22.0875 8.27271 21.9787 8.2466C21.8699 8.22048 21.7045 8.18565 21.6088 8.17696C21.513 8.16389 21.3955 8.13777 21.3476 8.11602C21.1779 8.04203 20.7209 8.01594 19.5632 8.01158C18.8234 8.01158 18.2837 8.02898 18.1053 8.05945C17.6004 8.1552 17.3915 8.19872 17.2131 8.24224C17.1173 8.26835 16.9824 8.29883 16.9084 8.31187C16.8388 8.32927 16.7387 8.35539 16.6908 8.37715C16.6429 8.39455 16.5167 8.43374 16.4079 8.46418C16.2991 8.4903 16.1773 8.53384 16.1381 8.5556C16.0946 8.57736 16.0293 8.59476 15.9945 8.59476C15.9596 8.59476 15.9292 8.61216 15.9292 8.63828C15.9292 8.66004 15.89 8.6818 15.8465 8.6818C15.7986 8.6818 15.7464 8.69923 15.7333 8.72532C15.7203 8.74707 15.6594 8.76886 15.5984 8.76886C15.5418 8.76886 15.494 8.78626 15.494 8.81238C15.494 8.83414 15.4679 8.8559 15.4374 8.8559C15.3765 8.8559 15.1153 8.96905 14.8194 9.12572C14.7236 9.17795 14.5669 9.2563 14.4712 9.30417C14.3754 9.35204 14.2928 9.40428 14.2841 9.42603C14.2754 9.44779 14.2318 9.4652 14.1839 9.4652C14.1404 9.4652 14.1013 9.4826 14.1013 9.50436C14.1013 9.52611 14.0664 9.55223 14.0273 9.5653C13.9489 9.59142 13.7096 9.72633 13.666 9.76985C13.653 9.78292 13.5921 9.81772 13.5268 9.85255C13.4571 9.88735 13.4049 9.93087 13.4049 9.95263C13.4049 9.97006 13.3788 9.98746 13.344 9.98746C13.3135 9.98746 13.2265 10.044 13.1525 10.118C13.0742 10.1876 12.9958 10.2486 12.9784 10.2486C12.9567 10.2486 12.8827 10.3008 12.8087 10.3661C12.739 10.4357 12.5954 10.5576 12.491 10.6403C12.2124 10.8579 11.9208 11.1277 11.5161 11.5499C11.3202 11.7501 11.1026 11.9764 11.033 12.0504C10.959 12.1244 10.8546 12.2549 10.7936 12.3376C10.737 12.4203 10.6543 12.5204 10.6108 12.5596C10.5673 12.5988 10.5325 12.6466 10.5325 12.6684C10.5325 12.6901 10.4803 12.7641 10.4106 12.8381C10.3453 12.9078 10.267 13.0209 10.2322 13.0862C10.1974 13.1558 10.1539 13.2081 10.1321 13.2081C10.1147 13.2081 10.0973 13.2342 10.0973 13.2646C10.0973 13.2951 10.0624 13.3604 10.0233 13.4083C9.97977 13.4518 9.91885 13.5432 9.88402 13.6085C9.84919 13.6781 9.80567 13.7303 9.78391 13.7303C9.76651 13.7303 9.74911 13.7695 9.74911 13.8174C9.74911 13.8652 9.73604 13.9044 9.71863 13.9044C9.69688 13.9044 9.66204 13.9479 9.63596 14.0045C9.50538 14.2656 9.37482 14.492 9.34871 14.505C9.32695 14.5137 9.31388 14.5572 9.31388 14.6051C9.31388 14.6486 9.29648 14.6878 9.27036 14.6878C9.2486 14.6878 9.22684 14.727 9.22684 14.7748C9.22684 14.8227 9.20944 14.8619 9.18333 14.8619C9.16157 14.8619 9.13981 14.8924 9.13981 14.9272C9.13981 14.962 9.12238 15.0273 9.10062 15.0708C9.07886 15.1099 9.04406 15.1839 9.02663 15.2318C9.00051 15.2971 8.98747 15.2666 8.97442 15.1056C8.96571 14.9881 8.97875 14.8793 9.00051 14.8662C9.0223 14.8532 9.05275 14.7618 9.06582 14.666C9.07886 14.5703 9.11369 14.4049 9.13981 14.2961C9.1659 14.1873 9.20073 14.035 9.21377 13.9566C9.22684 13.8827 9.25296 13.8174 9.27472 13.8174C9.29648 13.8174 9.31388 13.7564 9.31388 13.6868C9.31388 13.6128 9.33564 13.5562 9.35739 13.5562C9.38351 13.5562 9.40091 13.4953 9.40091 13.4257C9.40091 13.3517 9.4227 13.2951 9.44446 13.2951C9.47057 13.2951 9.48797 13.2559 9.48797 13.2081C9.48797 13.1602 9.50538 13.0818 9.53149 13.034C9.55761 12.9861 9.59677 12.9078 9.61853 12.8599C9.64464 12.812 9.66205 12.7337 9.66205 12.6858C9.66205 12.6379 9.6838 12.5988 9.70559 12.5988C9.73168 12.5988 9.74911 12.5596 9.74911 12.5117C9.74911 12.4638 9.77087 12.4247 9.79263 12.4247C9.81874 12.4247 9.83614 12.3986 9.83614 12.3681C9.83614 12.3333 9.86662 12.2419 9.90578 12.1592C10.1364 11.6761 10.2931 11.3802 10.3236 11.3802C10.341 11.3802 10.3584 11.341 10.3584 11.2931C10.3584 11.2452 10.3802 11.2061 10.4019 11.2061C10.428 11.2061 10.4454 11.1756 10.4454 11.1408C10.4454 11.1016 10.4846 11.032 10.5325 10.9798C10.5804 10.9275 10.6195 10.8579 10.6195 10.8274C10.6195 10.7969 10.6413 10.7709 10.6631 10.7709C10.6892 10.7709 10.7066 10.7447 10.7066 10.7143C10.7066 10.6838 10.7457 10.6142 10.7936 10.5619C10.8415 10.5097 10.8807 10.4531 10.8807 10.4357C10.8807 10.4183 10.9416 10.3313 11.0112 10.2486C11.0809 10.1659 11.1418 10.0745 11.1418 10.0527C11.1418 10.0266 11.181 9.97875 11.2288 9.94394C11.2767 9.90911 11.3159 9.86124 11.3159 9.83512C11.3159 9.81336 11.4073 9.6915 11.5161 9.57399C11.6292 9.45215 11.7685 9.28677 11.8338 9.20406C11.9861 8.99952 12.7477 8.24224 12.9567 8.0899C13.0481 8.02027 13.1699 7.91583 13.2308 7.85488C13.2918 7.79396 13.4093 7.69386 13.492 7.6373C13.5746 7.57635 13.6835 7.498 13.727 7.45448C13.7749 7.41097 13.8358 7.37616 13.8619 7.37616C13.888 7.37616 13.9359 7.33698 13.9707 7.2891C14.0055 7.24123 14.0534 7.20207 14.0795 7.20207C14.1056 7.20207 14.1665 7.16726 14.2144 7.12372C14.2579 7.08456 14.3493 7.02364 14.419 6.98881C14.4843 6.95401 14.5365 6.91046 14.5365 6.8887C14.5365 6.8713 14.5669 6.8539 14.6018 6.8539C14.6409 6.8539 14.7106 6.81471 14.7628 6.76686C14.815 6.71899 14.8847 6.6798 14.9151 6.6798C14.9456 6.6798 14.9717 6.66676 14.9717 6.645C14.9717 6.62757 15.0718 6.56665 15.1893 6.51006C15.3112 6.44914 15.4069 6.38387 15.4069 6.36647C15.4069 6.34904 15.4461 6.33163 15.494 6.33163C15.5418 6.33163 15.581 6.30988 15.581 6.28812C15.581 6.262 15.6071 6.2446 15.6376 6.2446C15.668 6.2446 15.8073 6.18801 15.9509 6.11402C16.0946 6.04439 16.2469 5.98347 16.2904 5.98347C16.3296 5.98347 16.3644 5.96171 16.3644 5.93995C16.3644 5.91383 16.4036 5.89641 16.4471 5.89641C16.495 5.89641 16.5472 5.87465 16.5603 5.85289C16.5733 5.82677 16.6342 5.80937 16.6952 5.80937C16.7517 5.80937 16.7996 5.79197 16.7996 5.77457C16.7996 5.75714 16.891 5.71798 17.0085 5.68751C17.1217 5.6527 17.2479 5.60918 17.2871 5.58743C17.3306 5.56567 17.4046 5.54824 17.4481 5.54824C17.496 5.54824 17.5482 5.52648 17.5612 5.50472C17.5743 5.4786 17.6439 5.4612 17.7179 5.4612C17.7876 5.4612 17.8441 5.4438 17.8441 5.42204C17.8441 5.40028 17.9094 5.37417 17.9878 5.3611C18.0617 5.34805 18.2141 5.31322 18.3229 5.28711C18.4317 5.26099 18.5884 5.22619 18.6711 5.21747C18.7538 5.20443 18.8625 5.17831 18.9104 5.15655C19.0018 5.11739 19.2499 5.08256 19.7809 5.0434C19.9506 5.03033 20.1029 4.99989 20.129 4.9781C20.1856 4.92589 22.6141 4.95634 23.0667 5.01729C23.2452 5.0434 23.4932 5.07385 23.6108 5.09128C23.7326 5.10432 23.8675 5.13479 23.9154 5.15655C23.9633 5.17831 24.0808 5.20443 24.1765 5.22183C24.2723 5.2349 24.4246 5.25666 24.516 5.2697C24.6031 5.28711 24.6901 5.31322 24.7032 5.33498C24.7162 5.35674 24.7815 5.37417 24.8511 5.37417C24.9208 5.37417 24.9904 5.39157 25.0035 5.41769C25.0165 5.43944 25.0992 5.4612 25.1819 5.4612C25.2646 5.4612 25.3299 5.4786 25.3299 5.50472C25.3299 5.52648 25.3864 5.54824 25.4561 5.54824C25.5301 5.54824 25.5997 5.56567 25.6128 5.59176C25.6258 5.61351 25.6867 5.6353 25.7477 5.6353C25.8043 5.6353 25.8521 5.6527 25.8521 5.67882C25.8521 5.70058 25.8913 5.72234 25.9392 5.72234C25.987 5.72234 26.0697 5.74409 26.1263 5.77457C26.3352 5.879 26.3744 5.89641 26.4614 5.89641C26.5093 5.89641 26.5485 5.91383 26.5485 5.93995C26.5485 5.96171 26.5877 5.98347 26.6355 5.98347C26.6834 5.98347 26.7226 6.00087 26.7226 6.02699C26.7226 6.04874 26.7487 6.0705 26.7791 6.0705C26.8444 6.0705 27.5669 6.42738 27.5843 6.4709C27.593 6.49266 27.6366 6.50573 27.6843 6.50573C27.7278 6.50573 27.7671 6.52313 27.7671 6.54925C27.7671 6.57101 27.8063 6.59277 27.8542 6.59277C27.9021 6.59277 27.9411 6.61017 27.9411 6.63628C27.9411 6.65804 27.9672 6.6798 27.9977 6.6798C28.0282 6.6798 28.0979 6.71899 28.15 6.76686C28.2022 6.81471 28.272 6.8539 28.3112 6.8539C28.346 6.8539 28.3765 6.8713 28.3765 6.8887C28.3765 6.91046 28.4285 6.95401 28.4983 6.98881C28.5636 7.02364 28.6461 7.08456 28.6853 7.12372C28.7246 7.16726 28.7725 7.20207 28.7943 7.20207C28.8161 7.20207 28.8899 7.24994 28.9596 7.31086C29.0293 7.37181 29.0987 7.41968 29.1162 7.41968C29.1336 7.41968 29.2251 7.48932 29.3166 7.57199C29.4078 7.6547 29.4993 7.72433 29.5168 7.72433C29.5385 7.72433 29.6559 7.82877 29.7866 7.95063C29.9127 8.07686 30.0911 8.25095 30.1869 8.33799C30.4742 8.60348 31.1444 9.32157 31.2531 9.47391C31.3097 9.55223 31.3664 9.62622 31.3795 9.63929C31.3925 9.65234 31.4533 9.73068 31.5099 9.81336C31.5709 9.89607 31.6493 10.0049 31.6926 10.0484C31.7362 10.0963 31.7711 10.1615 31.7711 10.192C31.7711 10.2225 31.7885 10.2486 31.8059 10.2486C31.8277 10.2486 31.8713 10.3008 31.9061 10.3661C31.9407 10.4357 32.0017 10.5271 32.0453 10.5706C32.0845 10.6185 32.1194 10.6838 32.1194 10.7143C32.1194 10.7447 32.1411 10.7709 32.1627 10.7709C32.1888 10.7709 32.2062 10.8274 32.2062 10.8971Z" fill="white"/>
</g>
<path d="M52.7909 6.76465C58.9764 6.76465 64.0074 11.7957 64.0074 17.9814C64.0074 24.1258 58.9764 29.1568 52.7909 29.1568C46.605 29.1568 41.6152 24.1258 41.6152 17.9814C41.6152 11.7957 46.605 6.76465 52.7909 6.76465ZM52.7909 8.7853C47.7185 8.7853 43.6358 12.8679 43.6358 17.9814C43.6358 23.0536 47.7185 27.1362 52.7909 27.1362C57.8629 27.1362 61.9456 23.0536 61.9456 17.9814C61.9456 12.8679 57.8629 8.7853 52.7909 8.7853ZM67.5228 7.25949H80.3066H81.9561V8.49663L69.461 26.6413H81.9561V28.6208H66.4918V27.3836L78.9455 9.28017H67.5228V7.25949ZM93.644 7.25949H96.1597L103.912 28.6208H101.768L99.6648 22.8474H90.1389L87.9946 28.6208H85.8914L93.644 7.25949ZM94.8811 9.73378L90.8812 20.8268H98.9225L94.8811 9.73378ZM107.627 7.25949H109.606V22.6L121.854 7.25949H124.452L115.916 17.9814L124.369 28.6208H121.771L114.596 19.6309L109.606 25.8578V28.6208H107.627V7.25949ZM142.54 7.25949H145.056L152.808 28.6208H150.664L148.561 22.8474H139.035L136.891 28.6208H134.787L142.54 7.25949ZM143.777 9.73378L139.777 20.8268H147.818L143.777 9.73378ZM156.523 7.25949H158.502V28.6208H156.523V7.25949Z" fill="white"/>
</svg>
